<svg xmlns="http://www.w3.org/2000/svg" viewBox="0 0 639.74 375.18"><defs><style>.cls-1{fill:#ea8026;}.cls-2{fill:#5489c1;}.cls-3{fill:#5288c1;}.cls-4{fill:#33659d;}.cls-5{fill:#3c78af;}.cls-6{fill:#eb8025;}.cls-7{fill:#153d66;}.cls-8{fill:#34669d;}.cls-9{fill:#34669e;}.cls-10{fill:#4380b7;}.cls-11{fill:#34679e;}.cls-12{fill:#4e84bf;}.cls-13{fill:#3f7cb3;}.cls-14{fill:#447eb6;}.cls-15{fill:#386ea7;}.cls-16{fill:#eb8329;}.cls-17{fill:#3e77af;}.cls-18{fill:#8bb2d5;}.cls-19{fill:#94b9d9;}.cls-20{fill:#91b5d7;}.cls-21{fill:#8db6d8;}.cls-22{fill:#8fb4d6;}.cls-23{fill:#95b9da;}.cls-24{fill:#95b8d9;}.cls-25{fill:#91b6d7;}.cls-26{fill:#93b8db;}.cls-27{fill:#93b8da;}.cls-28{fill:#90b7da;}.cls-29{fill:#91b7db;}.cls-30{fill:#92b8da;}.cls-31{fill:#90b5d8;}.cls-32{fill:#90b4d5;}.cls-33{fill:#8fb5d6;}.cls-34{fill:#95badc;}.cls-35{fill:#8bb2d6;}.cls-36{fill:#8db4d8;}.cls-37{fill:#8db4d7;}.cls-38{fill:#8cb4d9;}.cls-39{fill:#8eb2d4;}.cls-40{fill:#96b8d9;}.cls-41{fill:#8cb3d7;}.cls-42{fill:#90b4d7;}.cls-43{fill:#95b9db;}.cls-44{fill:#8eb5d9;}.cls-45{fill:#8fb6d9;}.cls-46{fill:#90b5d7;}.cls-47{fill:#8db4d9;}.cls-48{fill:#8ab2d6;}.cls-49{fill:#8fb5d9;}.cls-50{fill:#8bb3d7;}.cls-51{fill:#8db3d6;}.cls-52{fill:#90b6d9;}.cls-53{fill:#8fb4d8;}.cls-54{fill:#8bb4d8;}.cls-55{fill:#8bb3d8;}.cls-56{fill:#8cb4d8;}.cls-57{fill:#93b6d8;}.cls-58{fill:#8cb4da;}.cls-59{fill:#90b6d8;}.cls-60{fill:#8eb4d8;}.cls-61{fill:#92b8db;}.cls-62{fill:#87aed5;}.cls-63{fill:#e5f2f8;}.cls-64{fill:#163d67;}.cls-65{fill:#adcde5;}.cls-66{fill:#fbfbfb;}.cls-67{fill:#153c65;}.cls-68{fill:#dbe6ed;}.cls-69{fill:#4480b8;}.cls-70{fill:#fafbfb;}.cls-71{fill:#ecf4fb;}.cls-72{fill:#edf4fb;}.cls-73{fill:#e9f2fa;}.cls-74{fill:#2d6299;}.cls-75{fill:#346da9;}.cls-76{fill:#d9e5ec;}.cls-77{fill:#afcee6;}.cls-78{fill:#376ea6;}.cls-79{fill:#376fa7;}</style></defs><title>likeAsset 20@72x</title><g id="Layer_2" data-name="Layer 2"><g id="Layer_1-2" data-name="Layer 1"><path class="cls-1" d="M84.74,278.4a277.08,277.08,0,0,1-33-.87C39,276.55,26.38,275,14,271.6A48.2,48.2,0,0,1,1.89,267c-1-.61-2.1-1.2-1.85-2.75C1.73,253.72,3,243.15,6,232.92a26.08,26.08,0,0,1,10.11-13.87c7.49-5.43,16-8.77,24.67-11.81,4.18-1.47,8.35-3,12.57-4.35a15,15,0,0,0,7.79-5.49c.75-1,1.22-1.15,2.4-.61a33.14,33.14,0,0,0,26.65.57c.93-.36,1.73-1,2.49.41,1.51,2.76,4.14,4,7,5.14,10.85,4.2,21.92,7.86,32.28,13.27a31.18,31.18,0,0,1,15.2,16.58c4,10.17,5.31,20.92,7,31.59.31,2-1.29,2.56-2.51,3.22-5.24,2.86-11,4.41-16.75,5.68a244,244,0,0,1-46.52,5.14C87.14,278.42,85.94,278.4,84.74,278.4Z"/><path class="cls-2" d="M394.21,158.26c1,.61,1.21,2.61,2.54,2.12s1.16-2.14,1.2-3.46c.21-7.61,2.48-9.82,10.09-9.79a23,23,0,0,1,5.8.32c4.22,1.11,6.66,4.29,6.48,8.47-.16,3.84-2.79,6.61-7.05,7.33a67.52,67.52,0,0,1-9.95.66c-1,0-2.31,0-2.72.92s.86,1.48,1.47,2.08c5.67,5.58,11.56,11,14.67,18.55a39.29,39.29,0,0,1,2.93,18.42c-.55,5.31-.11,10.63-.23,15.94-.07,2.84-.27,3.19-3.15,3.2-2.24,0-4.61.62-6.69-.82-1.5-3.92-1.5-3.92-6-3.16q-11.36,1.91-22.73,3.69a38.61,38.61,0,0,1-4.43.29c-28.68,1.35-57.37.29-86,.61a10.75,10.75,0,0,1-2.47-.2c-1.46-.31-2-1.47-2.49-2.69a94.67,94.67,0,0,0-4.44-9.46c-7.8-16.62-16.18-33-23.47-49.84-.53-1.22-1.89-2.67.33-3.72a21.37,21.37,0,0,1,4.15-.17c22.2,0,44.39.11,66.58,0,17.47-.12,34.95.13,52.4,0a1.15,1.15,0,0,0,.87-1.39c-.36-1.16-.09-2.62-1.56-3.25-1.21-1.27-2.21-2.63-1.92-4.54a1.49,1.49,0,0,1,1.3-.85,12.84,12.84,0,0,0,6-1.43,2.57,2.57,0,0,1,2.35.1,8.34,8.34,0,0,1,1.69,3.31C389.7,153.16,391,156.21,394.21,158.26Z"/><path class="cls-3" d="M508.76,119.57c-8.78-3.5-16-8.49-20.85-15.86-3.48-5.24-7.47-7-13.48-6.4-4.48.48-9.05.13-13.58.09-11.49-.11-18.93-7.56-19-19,0-7.67,0-15.35,0-23,0-10.49,7.1-17.64,17.59-17.67q25.81-.07,51.62,0c11.14,0,18.59,7.57,18.6,18.68,0,7.67,0,15.35,0,23-.1,11.17-6.95,17.92-18,18-2.44,0-5.78-1.14-7.06.56-1,1.3.52,4.5,1,6.83C506.56,109.56,507.6,114.24,508.76,119.57Z"/><path class="cls-4" d="M126.21,117.23c1.3-5.76,2.36-11.19,3.82-16.51.72-2.62-.19-3-2.4-2.83a20.6,20.6,0,0,1-12.24-2.78c-5.62-3.37-8-8.62-8.15-14.86-.2-8.5-.12-17,0-25.52.11-9.53,7.16-16.51,17.2-16.61q25.92-.25,51.86,0c7.05.07,12.92,2.82,16.65,9.22a15.4,15.4,0,0,1,2.14,7.91c0,8.32.05,16.64,0,25C195,90.78,188,97.77,177.44,97.87c-7.95.08-15.9,0-23.85,0a3.61,3.61,0,0,0-3.32,1.44C144.1,107.5,135.86,113,126.21,117.23Z"/><path class="cls-1" d="M76.89,194c-11.32.78-17.82-6.65-23.54-15.22a48.46,48.46,0,0,0-4.43-6.17c-4-4.38-6.5-9.63-6.4-15.79,0-1.21-.13-2.77.9-3.37,2.78-1.62,1.58-3.85,1.24-6-2-12.25,1-23,10.87-30.76,10.81-8.43,23.21-9,35.39-3.6,11.21,5,17.57,14.15,18.15,26.71a43.87,43.87,0,0,1-.81,10.21c-.2,1.07-.2,1.69,1,2.36,2.27,1.24,2.38,3.67,2,5.89-1,6.15-3,11.8-8.42,15.61a5.52,5.52,0,0,0-1.28,2.09,47.5,47.5,0,0,1-6.31,9.74C89.57,192.41,86,194.08,76.89,194Z"/><path class="cls-5" d="M409.63,221.53c2.8,1.37,5.75.53,8.62.5,1.27,0,.89-1.41.89-2.26,0-4.42,0-8.85,0-13.27,0-.89-.3-1.87.5-2.62.14,11.22.32,22.43.39,33.64,0,2.2-.35,4.44-2.52,5.78-.84,1.43-2.26,1.76-3.74,2.07-3.65.75-7.37.65-11,.84-5.16.26-10.32.61-15.49.79-32.52,1.14-65,1.23-97.56,1-15-.1-29.91-.72-44.87-1.17-6.54-.2-13.09-.65-19.63-1.09-2.33-.16-4.91,0-6.44-2.44-1.22-1-2.31-2-2.31-3.77a205.6,205.6,0,0,1,0-20.92l.12-20.34c.53-1.14,0-2.41.43-3.55l.1-.86c1.94.74,1.35,2.48,1.19,3.75-.88,6.73-.21,13.48-.5,20.21-.09,2.26.56,3.8,2.84,4.34,5.92,1.4,8.94,6.66,13.25,10.15,2.09,1.7,3.58,2.62,5.88.88a4.14,4.14,0,0,1,1-.38,12.6,12.6,0,0,1,3.3-.28c6,0,10.36-2.83,13.19-8.11.5-.93.62-2.19,1.91-2.56,4.88-.07,9.76.07,14.64,0,3.18-.05,6.36,0,9.54,0a6.26,6.26,0,0,1,3.64.88q40.37,0,80.71,0c3.13,0,6.21-.95,9.36-.44a6.76,6.76,0,0,1,1.9,2.35c4.94,10.27,20.85,10.82,27.6,1C407.54,224.24,407.86,222.32,409.63,221.53Z"/><path class="cls-6" d="M619.47,273.41c-22.29,6.47-45,8.54-68.17,7.29a216.08,216.08,0,0,1-40-5.77c-.62-.15-1.22-.41-1.82-.62a3.23,3.23,0,0,1-.31-2.91c1.85-8.11,3.86-16.16,8.89-23a5.48,5.48,0,0,0,.87-4.45c-1.24-7.63-2.46-15.27-3.71-22.91-.25-1.49-1-3,0-4.56a100,100,0,0,1,12.34-3.57c1.1.64,1.25,1.79,1.46,2.87,1.53,7.62,3.45,15.15,5.12,22.73,1.49,6.78,2.78,7.83,9.83,7.85,12.11,0,24.23,0,36.35,0,1.75,0,3.51,0,5.26,0a9.25,9.25,0,0,1,2.46.29c.6.19,1,.33.8,1.33a2.83,2.83,0,0,0,3.89,3.4c3-1.15,6.07-2.22,8.57-4.38,1.66-1.43,3.48-2,5.63-1,.65-.83.1-1.8.42-2.63.23-.62.2-1.59,1.35-1.12.1,3.79,2.29,6.59,4.24,9.6,3.55,5.5,5.28,11.76,6.66,18.1C619.84,271.07,620.37,272.3,619.47,273.41Z"/><path class="cls-7" d="M218.77,243.32a12.36,12.36,0,0,0,6.1,1.55c10.51.36,21,.91,31.52,1.34,31,1.27,62.06,1,93.09.79,9.41-.06,18.84-.12,28.25-.47,11-.4,22.1-1,33.14-1.67,2.27-.13,4.62-.31,6.67-1.56,0,4.72,0,9.43,0,14.15-.08,5.51-2.77,8.1-8.27,8.1-7.68,0-15.35,0-23-.06-4.78,0-7-2.17-7.72-6.88-.3-2.08.54-5-1-6s-4.08-.33-6.2-.34l-109,0c-3.87,0-3.87,0-4.34,3.87-.12,1-.19,2-.3,3-.48,4-3,6.39-7,6.41q-12.34.09-24.7,0c-4.46,0-7.08-2.86-7.18-7.76S218.75,248.13,218.77,243.32Z"/><path class="cls-8" d="M595.54,151.21a132.32,132.32,0,0,0-12-5.59c-17.35-6.91-34-5.08-50.17,3.78-1.38.76-2.78,1.48-4.11,2.31-.93.57-1.58.66-1.6-.66-.15-13.14,1.54-25.54,13.15-34.2,11-8.21,36.25-9.34,47.73,5.77C593.49,129.19,597.14,143.09,595.54,151.21Z"/><path class="cls-9" d="M586.06,247.11q-19.83,0-39.67,0c-1.94,0-3.89,0-5.82-.18-4.45-.41-5.84-1.61-6.81-5.89-1.77-7.75-3.46-15.5-5.18-23.26-.36-1.62-.68-3.25-1-4.88,3.13-.78,6.27-1.52,9.39-2.37,1.47-.41,2.24-.17,2.87,1.43,7.14,18,30.84,17.9,40.88,7.65a24.76,24.76,0,0,0,5.11-7.83c.61-1.43,1.21-2,2.87-1.49,3.51,1.09,7.19,1.64,10.61,3.06a4.13,4.13,0,0,1,.28,3.21c-1.72,8.29-3.29,16.61-4.89,24.92-.81,4.25-2.54,5.58-6.73,5.44A3.93,3.93,0,0,0,586.06,247.11Z"/><path class="cls-10" d="M273.7,222.74c-4.05,0-8.09,0-12.13,0a7.29,7.29,0,0,1-3-.52.82.82,0,0,1-1.1,0c.75-1.76,2.46-2.33,3.94-3.14,4.44-2.43,6.61-6.73,8.93-10.85a3.58,3.58,0,0,0-.6-4.61,4.38,4.38,0,0,1-1.54-4.84c.46-4.2.43-4.24-3.75-6.1-4.07-1.45-8.1-3-12.23-4.3-5.42-1.84-10.52-4.74-16.42-5a1.36,1.36,0,0,1-1.12-.71c.55-1.46,1.77-.41,2.57-.7-2.84-.65-4.43-10.18-2.54-15.55,2-2.07-.09-2.21-1.26-2.33-3.4-.35-6.84-.33-10.22-.75-6.26-.79-9.3-6.46-6.48-11.78s16-6.51,19.74-1.64a9,9,0,0,1,1.7,5.73c0,1.82-.18,3.71,1.34,5.63,5.13-6.79,7.59-14.81,11.82-21.85,3.56.78,3.7,1.24,2.76,4.42s.12,6.18,1,9.19c.45,1.63-.91,2.84-1,4.34.84.65,2.15,0,2.86,1,3,6.8,5.95,13.64,9.11,20.37C271,189,276,199.26,281,209.52a13.58,13.58,0,0,1,.52,1.56c.08,1.63-1.13,1.62-2.21,1.69-6.11.39-8.09,3.77-5.52,9.44A.71.71,0,0,1,273.7,222.74Z"/><path class="cls-11" d="M515.22,216.44c1.59,9.63,3.16,19.27,4.78,28.89a3.41,3.41,0,0,1-.81,2.8c-5.79,7.78-8,16.87-9.67,26.18a89.28,89.28,0,0,1-23-8.5,2.09,2.09,0,0,1-1.17-2.5c1.43-8.39,3.11-16.72,5.36-24.93C494.13,225.74,503.39,219.67,515.22,216.44Z"/><path class="cls-12" d="M254.84,153.4c-1.76-2.27-2.31-8.38-.9-10.61.6-.94.76-1.74-.54-2a5.61,5.61,0,0,1-2-1.35c1.22-2.17,2.45-4.34,3.66-6.51,6.19-11.15,15.92-16.11,28.4-16.72,20.12-1,40.24-1.44,60.37-.46,5.51.26,11.06.35,16.53,1.46A27.18,27.18,0,0,1,377,127.34a88,88,0,0,1,11.07,18.79,7.61,7.61,0,0,0-3,.93c-2,1.3-4.36.76-6.5,1.3-1.39-.11-1.65-1.34-2.18-2.25-2.54-4.4-5-8.86-7.77-13.1a17.83,17.83,0,0,0-14.41-8.44c-19-1.53-38-.94-57-.86-5.41,0-10.87.5-16.28,1.05a16.75,16.75,0,0,0-12.62,7c-4.31,5.94-7.5,12.49-11,18.88C256.68,151.74,256.46,153.21,254.84,153.4Z"/><path class="cls-13" d="M268.8,198.87c-.34,2,.59,3.19,1.87,4.67,1.83,2.13.89,4.72-.49,6.9-3.15,5-7,9.3-12.58,11.71-1,1-2.07.49-3.13.34-7.85-1.09-15.65-2.51-23.45-3.86-1.13-.2-2.53-.89-3.4.19-1,1.23-.25,2.68.32,3.92,2.06,4.45,5.18,7.79,10,9.26,1,.31,2.21.38,3,1.34a1.8,1.8,0,0,1-.19.2c-4.8,4.51-6.83-.95-9.78-2.82a13.13,13.13,0,0,1-3.34-3.31c-2.23-3-5.69-4-8.91-5.11-1.42-.51-1.7-1.07-1.65-2.28.3-7.29-.57-14.59.49-21.87.2-1.37.58-3-.45-4.27,1.49-9.45,6.34-17,13.27-23.34a3.09,3.09,0,0,0,2.22-2.26,3.7,3.7,0,0,1,2.16-1.89c-.43,4.4.69,8.67,1,13,.14,1.66.7,2.52,2.73,2.34-1.37.9-2.76,0-3.69,1a2.83,2.83,0,0,1-1.39,1.3c-3.7,2.05-5.26,5.21-5.09,9.41a9.21,9.21,0,0,0,6.69,8.84,47.49,47.49,0,0,0,9.54,1.63c4.14.4,8.29.6,12.43.84,4.29.24,8-1,10.48-4.93A1.8,1.8,0,0,1,268.8,198.87Z"/><path class="cls-11" d="M619.47,273.41c-1.29-7.07-3-14-6.61-20.31a8.9,8.9,0,0,0-1.64-2.53c-2.71-2.27-3-5.2-2.65-8.4-1.08-4.41,0-8.79.27-13.17.18-2.75.45-5.49.53-8.25,0-1.46.14-3,1.29-4.1C620.87,219,628,225,632.27,234.46c4.08,9.1,5.78,18.86,7.4,28.62a2.9,2.9,0,0,1-1.8,3.52A87.49,87.49,0,0,1,619.47,273.41Z"/><path class="cls-14" d="M536.9,177.67c2.08,6.44,4.55,12.67,8.56,18.22,9.2,12.73,24.18,12.66,33.26-.2a52.7,52.7,0,0,0,9.77-28.44c.09-1.67.41-2.71,2.29-3.12a13,13,0,0,0,4.86-2.6c1.42-1.07,2.18-.52,2.6.94a15,15,0,0,1,.32,6.59c-.95,5.84-2.59,11.35-7.66,15.11-.83.62-.88,1.61-1.15,2.46a48,48,0,0,1-7.22,14,24.78,24.78,0,0,1-39.53,1.2,54.1,54.1,0,0,1-7.85-13.33c-.88-2-1.54-4.06-3.57-5.33-.62-.39-.88-1.37-1.3-2.07.57-1.84,2.32-1.91,3.74-2.43C535,178.3,535.92,177.94,536.9,177.67Z"/><path class="cls-15" d="M596.34,156.73a19,19,0,0,1-11.26,4.4,25.94,25.94,0,0,1-10.86-1.83,34.25,34.25,0,0,0-23.86-.05,31.19,31.19,0,0,1-11.66,2.09,17.06,17.06,0,0,1-10-3.6c10.41-7,21.3-11.43,33.73-11.56S585.44,151.41,596.34,156.73Z"/><path class="cls-16" d="M610.66,216.65q-.84,11.41-1.69,22.83c-.07.9-.26,1.79-.4,2.69-1.41,1.48-.15,3.38-.89,5.18-2.45-2.17-4.42-1.21-6.58.71-2.57,2.27-6,3.12-9.1,4.45-1.63.71-5-2.56-4.76-4.41.08-.65,1.11,0,1.25-.86l-2.43-.13c.71-.1,1.43-.24,2.15-.3,3.19-.28,4.93-1.68,5.55-4.79,1.88-9.56,3.69-19.13,5.53-28.7A65,65,0,0,1,610.66,216.65Z"/><path class="cls-17" d="M536.9,177.67c-.07,1.31-1.19,1.09-2,1.39-1.57.6-3.32.83-4.64,2-3.28-4.88-5.11-10.2-4.44-16.13.4-3.46.68-3,3.87-2.09,5.58,1.57,6.87,5.17,6.61,10.28C536.25,174.6,536,176.27,536.9,177.67Z"/><path class="cls-18" d="M505.21,183.59c.15,2.08-.38,4-2.7,4s-2.87-1.83-2.76-3.9c.08-1.46-.06-2.95.13-4.39a2.5,2.5,0,0,1,2.58-2.4c1.47,0,2.22,1,2.29,2.57C504.81,180.87,505.05,182.23,505.21,183.59Z"/><path class="cls-19" d="M138.5,162.84c-.15,2.38-.14,4.13-.41,5.85a2.72,2.72,0,0,1-3.31,2.53c-1.65-.33-2.29-1.6-1.91-3.39s.34-3.47.73-5.15a2.36,2.36,0,0,1,2.83-2A2.53,2.53,0,0,1,138.5,162.84Z"/><path class="cls-20" d="M504.66,198.09a18.31,18.31,0,0,1-.39,4.6c-.45,1.43-1.35,2.29-2.83,2s-2.57-1.29-2.2-3a21.07,21.07,0,0,0,.42-4.39c0-1.82.77-3.26,2.62-3.23s2.45,1.64,2.38,3.39C504.65,197.93,504.66,198.39,504.66,198.09Z"/><path class="cls-21" d="M132.1,198.5a12.08,12.08,0,0,1,.29-2.36,2.35,2.35,0,0,1,2.57-1.66,2.11,2.11,0,0,1,2.11,1.84c.29,2,.47,4,.58,6a2.28,2.28,0,0,1-2.22,2.63,2.36,2.36,0,0,1-2.84-2.29C132.41,201.32,132.27,200,132.1,198.5Z"/><path class="cls-22" d="M498.57,164.53c-.08-.55-.19-1.09-.23-1.64a2.44,2.44,0,0,1,2.08-2.81A2.31,2.31,0,0,1,503.3,162a36.89,36.89,0,0,1,.69,6,2.29,2.29,0,0,1-2.05,2.54,2.39,2.39,0,0,1-2.89-1.94c-.31-1.33-.43-2.71-.63-4.07Z"/><path class="cls-23" d="M152.12,114.66c-1,2.08-1.34,4.72-3.2,6.62a2.08,2.08,0,0,1-2.76.42,2.37,2.37,0,0,1-1.13-2.85,56.14,56.14,0,0,1,2.38-5.86,2.12,2.12,0,0,1,2.8-1.11C151.38,112.27,151.94,113.17,152.12,114.66Z"/><path class="cls-24" d="M141.56,147c-.42,1.92-.77,4-1.38,6a2.24,2.24,0,0,1-2.66,1.47,2.17,2.17,0,0,1-2.07-2.46,37.75,37.75,0,0,1,1.29-6.43,2.25,2.25,0,0,1,2.91-1.43C141,144.48,141.5,145.51,141.56,147Z"/><path class="cls-25" d="M486.75,111.66a2.2,2.2,0,0,1,2,1.21c.85,1.72,1.66,3.47,2.34,5.27a2.36,2.36,0,0,1-1.16,3.27,2.54,2.54,0,0,1-3.48-1.31,34.11,34.11,0,0,1-2.21-5C483.55,113,484.75,111.45,486.75,111.66Z"/><path class="cls-22" d="M501.31,151a2.59,2.59,0,0,1-2.18,2.77,2.23,2.23,0,0,1-2.75-1.7,56.09,56.09,0,0,1-1.19-5.62c-.23-1.4.21-2.66,1.73-3a2.49,2.49,0,0,1,3.14,2c.45,1.58.73,3.21,1.08,4.81C501.2,150.48,501.25,150.75,501.31,151Z"/><path class="cls-26" d="M496.94,134.39c0,1.73-.33,2.68-1.71,2.88s-2.53-.06-3-1.33a38.94,38.94,0,0,1-1.8-5.77,2.32,2.32,0,0,1,1.63-2.84,2.25,2.25,0,0,1,2.88,1A20,20,0,0,1,496.94,134.39Z"/><path class="cls-27" d="M478.88,280.53a2.53,2.53,0,0,1,2.21,3.74,37.21,37.21,0,0,1-3.2,5.16,2.21,2.21,0,0,1-3,.65,2.07,2.07,0,0,1-1.27-2.73,21.3,21.3,0,0,1,4-6.25A3.42,3.42,0,0,1,478.88,280.53Z"/><path class="cls-28" d="M292.22,6.26c-1.7,0-3.36-.2-3.43-2.3-.07-1.91,1.3-2.66,3.1-2.78,1.47-.1,2.92-.4,4.39-.47a2.48,2.48,0,0,1,2.85,2.38c.15,1.71-.91,2.46-2.52,2.62S293.68,6.07,292.22,6.26Z"/><path class="cls-29" d="M403.25,356.57c-1.81.1-2.64-.29-3.1-1.4a2.25,2.25,0,0,1,.7-2.75,17.11,17.11,0,0,1,6.18-3,2.05,2.05,0,0,1,2.35,1.09,2.21,2.21,0,0,1-.22,2.83C407.33,355.1,404.86,355.71,403.25,356.57Z"/><path class="cls-30" d="M249.8,359.58a2.3,2.3,0,0,1-3.16,1.69,33.36,33.36,0,0,1-5.16-2,2.45,2.45,0,0,1-1.46-3,2.29,2.29,0,0,1,2.72-1.84,19.44,19.44,0,0,1,6.3,2.75C249.68,357.64,249.88,358.4,249.8,359.58Z"/><path class="cls-31" d="M421.27,26.78c1.87,1.4,4.52,1.93,6.31,3.85a2.24,2.24,0,0,1,.06,2.83,2.15,2.15,0,0,1-2.64,1,40.37,40.37,0,0,1-5.78-3.15c-1-.67-.85-2-.48-3.05S420.05,27.07,421.27,26.78Z"/><path class="cls-32" d="M146,131a58,58,0,0,1-1.9,5.59,2.46,2.46,0,0,1-4.61-1.69c.54-1.84,1.16-3.67,1.8-5.48a2.21,2.21,0,0,1,2.85-1.51C145.51,128.19,146.08,129.17,146,131Z"/><path class="cls-33" d="M132.09,182.9c0-1-.08-2,0-3a2.26,2.26,0,0,1,2.4-2.17,2.18,2.18,0,0,1,2.5,2,33,33,0,0,1,0,6.05,2.46,2.46,0,0,1-2.58,2.37,2.35,2.35,0,0,1-2.38-2.77c0-.82,0-1.65,0-2.48Z"/><path class="cls-34" d="M204.85,36.59a2.39,2.39,0,0,1-1.08,2.12c-1.5,1.07-3,2.1-4.59,3-1.38.83-2.53.13-3.33-1s-.44-2.3.66-3.11a41.35,41.35,0,0,1,4.77-3.25A2.27,2.27,0,0,1,204.85,36.59Z"/><path class="cls-35" d="M242.91,18.16c-1.59-.12-2.51-.43-2.91-1.56a2.26,2.26,0,0,1,.94-2.9,22.3,22.3,0,0,1,6.16-2.38,2.15,2.15,0,0,1,2.61,1.53,2.18,2.18,0,0,1-.88,2.91C246.78,16.76,244.6,17.49,242.91,18.16Z"/><path class="cls-36" d="M274.79,8.94a2.5,2.5,0,0,1-2.62-2.23,2.34,2.34,0,0,1,2-2.63A45.52,45.52,0,0,1,279.54,3a2.37,2.37,0,0,1,2.94,1.89,2.45,2.45,0,0,1-1.88,3C278.73,8.3,276.81,8.57,274.79,8.94Z"/><path class="cls-37" d="M181.62,313.3a2.4,2.4,0,0,1-1.18,2.33,2,2,0,0,1-2.55-.22,25.45,25.45,0,0,1-4.28-4.64,2.57,2.57,0,0,1-.11-2.86,2.11,2.11,0,0,1,2.19-.84C177.49,307.16,181.61,311.51,181.62,313.3Z"/><path class="cls-38" d="M258.81,12.9c-1.65,0-2.61-.58-2.88-2a2.34,2.34,0,0,1,1.57-2.88c1.73-.59,3.53-1,5.3-1.45a2.24,2.24,0,0,1,3.06,1.51,2.46,2.46,0,0,1-1.53,3.17A53.64,53.64,0,0,1,258.81,12.9Z"/><path class="cls-33" d="M378.76,14c-1.54-.46-3.59-1-5.57-1.72-1.24-.44-1.43-1.6-1.25-2.78a2.1,2.1,0,0,1,2.39-1.85,16.34,16.34,0,0,1,6.33,1.84,2.32,2.32,0,0,1,1.21,2.84C381.52,13.58,380.53,14,378.76,14Z"/><path class="cls-39" d="M231.14,17.76c1.62,0,2.65.13,3,1.31a2.49,2.49,0,0,1-1,3.14,38,38,0,0,1-5.76,2.56,2.37,2.37,0,0,1-2.74-1.38,2.09,2.09,0,0,1,.64-2.73A17.84,17.84,0,0,1,231.14,17.76Z"/><path class="cls-40" d="M209.77,30.31a2.19,2.19,0,0,1,1.12-2.08c1.65-1,3.32-2,5-2.82a2.12,2.12,0,0,1,3,1,2.3,2.3,0,0,1-.68,3.19,35,35,0,0,1-5.51,3.08C211.07,33.36,209.67,32.12,209.77,30.31Z"/><path class="cls-41" d="M258.34,360.39a19.44,19.44,0,0,1,5.91,2,2.28,2.28,0,0,1,.89,3.13,2.31,2.31,0,0,1-2.74,1.35,45.49,45.49,0,0,1-5.46-1.84,2.34,2.34,0,0,1-1.41-2.95C255.84,360.9,256.8,360.39,258.34,360.39Z"/><path class="cls-42" d="M406.28,19.45a18.24,18.24,0,0,1,6,2.65,2.36,2.36,0,0,1,.61,3,2,2,0,0,1-2.68,1.31,48,48,0,0,1-5.74-2.63c-1.13-.61-1.13-1.83-.85-2.95S405,19.46,406.28,19.45Z"/><path class="cls-43" d="M159.13,289.85c-1.47.13-2.22-.22-2.72-1-1.08-1.6-2.12-3.25-3.15-4.89a2.14,2.14,0,0,1,.6-3.16,2.21,2.21,0,0,1,3,.23,17.17,17.17,0,0,1,3.81,5.72A2.14,2.14,0,0,1,159.13,289.85Z"/><path class="cls-44" d="M278.46,371c-1.69-.4-3.69-.75-5.6-1.38a2.3,2.3,0,0,1-1.64-2.82,2.57,2.57,0,0,1,3-1.92,36.86,36.86,0,0,1,5.62,1.26,2.48,2.48,0,0,1,1.55,2.93C281.14,370.43,280.11,371,278.46,371Z"/><path class="cls-45" d="M455.38,317.1c-1.44-.4-2.7-1.25-1.9-3.07a14,14,0,0,1,4.58-5.42,2.35,2.35,0,0,1,3.7,1.78C462,312.18,457.35,317.2,455.38,317.1Z"/><path class="cls-46" d="M311,0c.74,0,1.48,0,2.21,0,1.53-.09,2.56.52,2.66,2.11a2.44,2.44,0,0,1-2.41,2.81A40,40,0,0,1,308.2,5a2.5,2.5,0,0,1-2.65-2.33,2.55,2.55,0,0,1,2.67-2.6c.92-.07,1.85,0,2.77,0Z"/><path class="cls-31" d="M199.91,329.47c1.47,0,6.3,3.72,6.56,5.08a2.4,2.4,0,0,1-.73,2.5,2.19,2.19,0,0,1-2.79.24c-1.6-1.06-3.17-2.17-4.68-3.36-1-.8-.84-2-.49-3S199.08,329.69,199.91,329.47Z"/><path class="cls-47" d="M360.24,366a2.39,2.39,0,0,1,2.78,1.84,2.35,2.35,0,0,1-1.7,3,40.26,40.26,0,0,1-5.66,1.15,2.16,2.16,0,0,1-2.58-1.93,2.34,2.34,0,0,1,1.59-2.87C356.51,366.67,358.43,366.38,360.24,366Z"/><path class="cls-48" d="M339.39,374.29a2.35,2.35,0,0,1-2.8-2,2.29,2.29,0,0,1,2-2.84,34.11,34.11,0,0,1,5.43-.65,2.48,2.48,0,0,1,2.89,2.31c.11,1.63-1,2.45-2.58,2.65S341,374.11,339.39,374.29Z"/><path class="cls-49" d="M362.1,9.55l-4.58-1c-1.65-.38-1.91-1.62-1.68-3a2.16,2.16,0,0,1,2.65-1.81c1.64.19,3.25.56,4.87.88S366,6,365.78,7.71,364.14,9.73,362.1,9.55Z"/><path class="cls-50" d="M324.83,375a11.39,11.39,0,0,1-2.09.23,2.24,2.24,0,0,1-2.46-2.08,2.28,2.28,0,0,1,1.65-2.78,17.14,17.14,0,0,1,6-.32,2.29,2.29,0,0,1,2.41,2.47c-.05,1.68-1.05,2.46-2.68,2.48Z"/><path class="cls-51" d="M394.85,19.59A17.75,17.75,0,0,1,388.66,17a2.12,2.12,0,0,1-.5-2.55A1.94,1.94,0,0,1,390,12.92a12.86,12.86,0,0,1,7.09,2.65,2,2,0,0,1,.57,2.51C397.19,19.14,396.4,19.63,394.85,19.59Z"/><path class="cls-41" d="M417.34,348.83a2.52,2.52,0,0,1-1.74-4.49c1.61-1.06,3.3-2,5-2.93a2.27,2.27,0,0,1,3.3,1,2.21,2.21,0,0,1-.87,3.13C421.06,346.73,419.26,348.22,417.34,348.83Z"/><path class="cls-52" d="M220.35,344a2.45,2.45,0,0,1-3.56,2.36,33,33,0,0,1-4.92-3.05,2.43,2.43,0,0,1,1.86-4.29,14.77,14.77,0,0,1,6.21,3.9A2.81,2.81,0,0,1,220.35,344Z"/><path class="cls-53" d="M450.22,322.82a2.47,2.47,0,0,1-1,2.18c-1.24,1.08-2.48,2.18-3.76,3.23a2.39,2.39,0,0,1-3.47-.15,2.17,2.17,0,0,1,0-3.23,28.63,28.63,0,0,1,4.49-4A2.36,2.36,0,0,1,450.22,322.82Z"/><path class="cls-54" d="M372.27,368.26c-1.77,0-2.76-.21-3-1.43s-.2-2.56,1.17-3.06a47,47,0,0,1,6.09-1.71,2.13,2.13,0,0,1,2.57,1.6,2.28,2.28,0,0,1-1.35,3C375.74,367.38,373.67,367.86,372.27,368.26Z"/><path class="cls-55" d="M309.25,374.81a23.43,23.43,0,0,1-2.78,0c-1.67-.21-2.82-1.16-2.7-2.91.11-1.56,1.33-2.09,2.79-2.06s2.78.1,4.17.06c1.9-.06,3.18.87,3.22,2.67,0,2-1.52,2.51-3.32,2.35a12.69,12.69,0,0,0-1.38,0Z"/><path class="cls-56" d="M346.61,6.82c-2.18-.29-3.73-.4-5.25-.72C340,5.81,339,5,339.18,3.41a2.29,2.29,0,0,1,2.65-2.19,35.06,35.06,0,0,1,5.71.68,2.3,2.3,0,0,1,1.65,3A2.28,2.28,0,0,1,346.61,6.82Z"/><path class="cls-53" d="M228.3,347.64a16.35,16.35,0,0,1,5.63,2.87,2.18,2.18,0,0,1,.31,3.24,2.41,2.41,0,0,1-3.19.78c-1.56-.8-3.13-1.6-4.64-2.49a2.33,2.33,0,0,1-1.22-2.81C225.56,348,226.49,347.52,228.3,347.64Z"/><path class="cls-52" d="M437.54,333.8a2.18,2.18,0,0,1-.8,2c-1.47,1.11-2.91,2.26-4.4,3.33a2.32,2.32,0,0,1-3.26-.3,2.41,2.41,0,0,1,.16-3.49,28,28,0,0,1,4.63-3.48C435.77,330.7,437.55,331.75,437.54,333.8Z"/><path class="cls-57" d="M466.33,304.25c-1.53.1-3.15-1.88-2.34-3.18a33,33,0,0,1,4.37-5.61c1.23-1.26,3.18-.4,3.57,1.33C472.38,298.8,468.39,304.12,466.33,304.25Z"/><path class="cls-58" d="M292,368.23c.61.09,1.88.3,3.16.47,1.81.24,2.66,1.33,2.38,3.06s-1.61,2.1-3.15,1.93c-1.19-.14-2.36-.37-3.55-.5-1.79-.18-3.47-.61-3.27-2.86S289.59,368.06,292,368.23Z"/><path class="cls-59" d="M327.63.16a23.24,23.24,0,0,1,2.77,0,2.3,2.3,0,0,1,2.2,2.66,2.17,2.17,0,0,1-2.31,2.24,46,46,0,0,1-4.7,0c-1.71-.09-3.22-.63-3.06-2.73C322.67.42,324,0,325.7,0c.64,0,1.29,0,1.93,0Z"/><path class="cls-60" d="M391.63,356.49c1.72,0,2.66.48,3,1.69a2.1,2.1,0,0,1-1.08,2.6,43.59,43.59,0,0,1-5.86,2.38,2.16,2.16,0,0,1-2.65-1.46,2.07,2.07,0,0,1,.73-2.69A16.23,16.23,0,0,1,391.63,356.49Z"/><path class="cls-61" d="M170.69,300.77a2.79,2.79,0,0,1-1.45,2.23,2,2,0,0,1-2.34-.2,27.14,27.14,0,0,1-4.21-5.11,2.28,2.28,0,0,1,.24-2.61c.58-.94,1.59-.86,2.5-.73C166.81,294.55,170.71,299.39,170.69,300.77Z"/><path class="cls-44" d="M191.23,327.18c-1.29,0-6.11-4.09-6.3-5.36a2.4,2.4,0,0,1,1-2.42,2.14,2.14,0,0,1,2.8-.06c1.52,1.18,3,2.41,4.41,3.72a2.32,2.32,0,0,1,.34,2.83A2.23,2.23,0,0,1,191.23,327.18Z"/><path class="cls-62" d="M435.35,35.59a15.7,15.7,0,0,1,6.07,3.91c.81.79-.71,1.64-1.21,2.42s-1.11,1.56-2.24.89c-1.42-.86-2.89-1.62-4.25-2.57-1.06-.74-.93-2-.63-3S434.2,35.8,435.35,35.59Z"/><path class="cls-12" d="M394.21,158.26c-3.62-1-6.11-5.88-4.46-8.82C391.77,152.11,392.31,155.53,394.21,158.26Z"/><path class="cls-13" d="M216.45,218.63q0,10.45,0,20.92c-.85-2.62-.36-5.31-.34-8C216.16,227.27,215.74,222.93,216.45,218.63Z"/><path class="cls-10" d="M232.59,168.28c.38,1.86-.35,2.62-2.22,2.26Z"/><path class="cls-13" d="M217,194.74c-.07,1.19.48,2.46-.43,3.55C216.55,197.09,216.35,195.86,217,194.74Z"/><path class="cls-63" d="M254.84,153.4c3.59-5.92,6.24-12.37,10.09-18.14.93-1.38,1.9-2.72,2.84-4.1,3.23-4.71,7.83-6.73,13.39-7.22,15-1.31,30.08-1.37,45.14-1.24q14.26.12,28.51,1.13a17.49,17.49,0,0,1,14,8.1c3.62,5.26,6.46,11,9.71,16.43a17.86,17.86,0,0,0,2.24,4.5,8.42,8.42,0,0,1,1.66,3.41l.5,1.44c-2,.72-4,.27-6,.32-4,.08-8-.06-11.93.06-1.73,0-2.32-.57-2.27-2.21.12-3.24-.57-6.43-.59-9.68,0-4.2-2-6.32-6.16-6.8a50.67,50.67,0,0,0-11.08,0c-3.92.41-6.28,3.12-6.47,7.07-.15,3,0,5.92-.09,8.88-.07,1.85-.7,2.79-2.85,2.77-12.21-.13-24.43,0-36.63-.09-1.2-.83-1-2.12-1-3.28-.07-2.68,0-5.36-.05-8-.13-4.32-2.69-7.12-7-7.44a63.82,63.82,0,0,0-10,0c-4.76.4-6.86,2.8-6.92,7.62,0,2.58.1,5.17-.08,7.75-.08,1.2.27,2.66-1.2,3.41q-8.79,0-17.59,0c-.79,0-1.65.27-2.38-.32A12,12,0,0,0,254.84,153.4Z"/><path class="cls-64" d="M318.32,217.8a170.57,170.57,0,0,1-22.13-1.12c-5-.6-9-2.78-11.62-7.08a67.43,67.43,0,0,1-6.72-13c-1.56-4.47.13-6.64,4.86-6.7,9.31-.1,18.63-.45,27.94-.29,10.6.18,21.21-.3,31.82.19,4.11.19,8.28.09,12.42.13,2.67,0,4.66,2.08,3.93,4.49-2.11,7-5.12,13.66-10.35,19-3.07,3.11-7.36,3.37-11.36,3.68A153.51,153.51,0,0,1,318.32,217.8Z"/><path class="cls-65" d="M298.78,157.73c12.09,0,24.18,0,36.28.08,1.93,0,2.61-.55,2.51-2.5-.14-2.86-.05-5.73,0-8.59,0-4.4,2.37-7.74,6.61-8.15,4.55-.43,9.21-.73,13.76.31a6.45,6.45,0,0,1,5.2,6.3c.18,3.77.46,7.53.41,11.3,0,1.65.9,1.28,1.72,1.28,5.91,0,11.82,0,17.73,0-.86,1.11-2.06.55-3.08.55q-52.14,0-104.27,0c-6.19,0-12.38.06-18.57.09-1.42-.4-3,.52-4.33-.63H273c1-.92,2.2-.83,3.37-.83q9.5-.06,19,0A5.19,5.19,0,0,1,298.78,157.73Z"/><path class="cls-66" d="M384.07,187.61c3.7-1.39,7.36-2.9,11.11-4.16,6.22-2.07,11.26.32,13.09,6.07,2,6.18-1,12.18-7.2,13.7a90,90,0,0,1-25,2.21,9.13,9.13,0,0,1-7.92-5.33c-2.2-4.34-1.43-6.21,3.23-7.93,1.64-.64,1.34.69,1.43,1.49.29,2.52.84,4.85,3,6.57A7.41,7.41,0,0,0,386,199.6c2.67-2.76,2.5-6.54-.36-9.63C385,189.29,383.8,188.91,384.07,187.61Z"/><path class="cls-67" d="M409.63,221.53c-3.37,7.63-8.88,12-17.57,11.82-7-.18-12.21-3.95-15-11.07,9.51-1.06,18.92-2.78,28.32-4.47C409.93,217,410,217.06,409.63,221.53Z"/><path class="cls-68" d="M384.07,187.61c3.29,2.59,5.74,5.52,4.09,10.11-1.15,3.19-4.88,5.35-8.68,5-3-.26-6.29-3.35-7-6.21-.37-1.46.24-3.18-1.11-4.37A93.85,93.85,0,0,1,384.07,187.61Z"/><path class="cls-69" d="M273.7,222.74a5.29,5.29,0,0,1-1.59-6.62,6.67,6.67,0,0,1,6.5-4c1.13.14,2.25.27,2.86-1,2.5,3.57,3.91,7.67,5.55,11.65Z"/><path class="cls-12" d="M382.46,156.27a10.3,10.3,0,0,1-1.66-3.41C382.36,153.51,382.46,154.87,382.46,156.27Z"/><path class="cls-70" d="M506.58,74a6.7,6.7,0,0,1-6.8-6.59,6.44,6.44,0,0,1,6.6-6.42A6.38,6.38,0,0,1,513,67.39,6.56,6.56,0,0,1,506.58,74Z"/><path class="cls-70" d="M485.89,74.07a6.58,6.58,0,0,1-6.68-6.39,6.61,6.61,0,0,1,13.22-.12A6.55,6.55,0,0,1,485.89,74.07Z"/><path class="cls-70" d="M471.93,67.5a6.64,6.64,0,0,1-13.27-.1,6.59,6.59,0,0,1,6.74-6.34A6.32,6.32,0,0,1,471.93,67.5Z"/><path class="cls-71" d="M178.27,67.77a6.72,6.72,0,0,1-6.56,6.58,6.55,6.55,0,1,1,6.56-6.58Z"/><path class="cls-72" d="M124.15,67.79a6.53,6.53,0,1,1,6.53,6.57A6.58,6.58,0,0,1,124.15,67.79Z"/><path class="cls-73" d="M144.69,67.9a6.52,6.52,0,0,1,13-.27,6.52,6.52,0,1,1-13,.27Z"/><path class="cls-67" d="M240.93,233.34c-7.05-.75-13.44-6.42-14.44-12.82-.43-2.77.11-3.32,2.8-2.89l28.31,4.52,1,.08c-.6,5.76-7.26,10.8-13,11C244.05,233.34,242.49,233.32,240.93,233.34Z"/><path class="cls-66" d="M595.15,254.9c1.31.85,2.75,1.52,3.61,2.94s1.14,2.42-1.14,2.25a19.74,19.74,0,0,0-2.77.05c-.64,0-1.35.14-1.54.91a1.62,1.62,0,0,0,.8,1.9c.8.45,1.73.65,2.54,1.07.63.32,1.69.05,1.86.91s-.69,1.43-1.34,1.92a6.33,6.33,0,0,1-8.8-.56,5.86,5.86,0,0,0-4.67-1.78q-19,0-38-.15a6.25,6.25,0,0,0-5.11,2,7.17,7.17,0,0,1-7.59,2.15,6.06,6.06,0,0,1-4.28-5,6,6,0,0,1-.1-1.93c.12-1,.16-2.31,1.18-2.63s1.32,1,1.92,1.66,1,1.35,1.59,1.91c.79.73,1.77,1.23,2.68.26a1.83,1.83,0,0,0-.23-2.72c-1-1-2.06-1.86-3.12-2.75-1.23-1-1.09-1.72.39-2.36a6.88,6.88,0,0,1,8.27,2,4.54,4.54,0,0,0,4.22,1.85c12.39-.06,24.78-.08,37.16,0,2.52,0,4.7-.18,6.32-2.43a8.09,8.09,0,0,1,2.29-1.52A8,8,0,0,1,595.15,254.9Z"/><path class="cls-16" d="M595.15,254.9l-3.85-.06A3.58,3.58,0,0,1,595.15,254.9Z"/><path class="cls-74" d="M256.9,251.85c-11.25.24-22.47.83-33.69,0C234.44,249.92,245.7,252.36,256.9,251.85Z"/><path class="cls-75" d="M413.5,252.05H379.22C390.63,251.88,402,251.09,413.5,252.05Z"/><path class="cls-66" d="M268.8,198.87c-2.26,4.89-6.29,6.87-11.43,6.58-7-.39-14-.45-20.9-2-5.54-1.26-8.54-4.4-8.91-9.16-.46-5.91,1.62-9.22,7.27-11.56,6.49-.32,12,2.9,17.78,5,.19,1.1-.78,1.34-1.38,1.84-3,2.52-3.65,5.36-1.88,8.55a6.93,6.93,0,0,0,8.73,3.35c3-1.14,4.87-3.16,4.95-6.62,0-1.11-.6-3.08,1.85-2.71C269.25,193.68,269.71,194.48,268.8,198.87Z"/><path class="cls-76" d="M264.88,192.16c-2,.51-1.08,2.11-1.13,3.23-.17,3.31-2.14,5.79-5.75,6.93a7.54,7.54,0,0,1-8.62-2.69c-2.25-3.14-2.35-6.17-.42-9,.93-1.37,2.54-1.8,3.65-2.89A109.36,109.36,0,0,1,264.88,192.16Z"/><path class="cls-77" d="M298.78,157.73H273c0-3.77.08-7.54.1-11.31,0-4.95,2.59-7.76,7.59-8,3.49-.16,7-.17,10.51,0a7.72,7.72,0,0,1,7.47,8C298.73,150.17,298.75,154,298.78,157.73Z"/><path class="cls-78" d="M289.8,199.53a255.55,255.55,0,0,1,56.59,0A322.15,322.15,0,0,1,289.8,199.53Z"/><path class="cls-79" d="M341.59,208.17c-9,2.54-42.52,2.22-48.11-.31A317.75,317.75,0,0,1,341.59,208.17Z"/></g></g></svg>