<?xml version="1.0" encoding="utf-8"?>
<!-- Generator: Adobe Illustrator 23.0.3, SVG Export Plug-In . SVG Version: 6.00 Build 0)  -->
<svg version="1.1" id="Layer_1" xmlns="http://www.w3.org/2000/svg" xmlns:xlink="http://www.w3.org/1999/xlink" x="0px" y="0px"
	 viewBox="0 0 75.9 70" style="enable-background:new 0 0 75.9 70;" xml:space="preserve">
<style type="text/css">
	.st0{fill:#F2F2F2;}
</style>
<title>likeAsset 19@72x</title>
<g>
	<g id="Layer_1-2">
		<g id="Layer_1-2-2">
			<path class="st0" d="M61.1,54c-2,0-4-0.4-5.8-1.2c-2.3-1-9.2-3.9-9.2-12.4v-2.8h5.3v2.7c0,3.5,1.7,5.7,5.9,7.5
				c2.7,1.2,5.8,1,8.3-0.5c2.5-1.6,4-4.5,3.9-7.5c0.1-2.1-1.6-3.9-3.7-4H28.2c0.4,1.4,0.6,2.7,0.6,4.2c0,5.7-3.3,10.3-9.2,12.8
				c-4.3,1.9-9.2,1.5-13.2-0.9C2.3,49.3-0.1,44.8,0,40l0,0c-0.2-5.1,3.7-9.4,8.8-9.6c0,0,0,0,0,0h8.2c-1-0.6-2.1-1.1-3.3-1.5l-5-0.3
				C4,28.6,0,24.7,0,19.9V9c0-5,4-9,9-9h27c11.8,1,24.1,6.6,36.7,16.6l0.6,0.5c2.9,2.2,3.5,6.4,1.3,9.3C73.2,28,71.3,29,69.2,29H50
				c-7.7,0-13.9-6.2-14-13.9V8.6h5.3v6.4c0,4.8,3.9,8.7,8.7,8.7h19.2c0.7,0,1.3-0.6,1.3-1.3c0,0,0,0,0,0c0-0.4-0.2-0.8-0.5-1.1
				l-0.6-0.6c-11.6-9.3-23-14.5-33.7-15.5H9.1c-2,0-3.7,1.6-3.7,3.6V20c0,1.9,1.6,3.4,3.4,3.4h0.3l5.7,0.4H15
				c4,1.2,7.6,3.5,10.4,6.7h40.3c5.1,0,9.2,4.1,9.2,9.2c0,0,0,0,0,0V40l0,0c0.1,4.8-2.3,9.2-6.4,11.8C66.3,53.2,63.7,54,61.1,54z
				 M9.2,35.8c-2.1,0-3.8,1.7-3.8,3.8l0,0v0.2l0,0c-0.2,3,1.3,5.9,3.9,7.5c2.5,1.5,5.6,1.7,8.3,0.5c3.9-1.7,5.9-4.3,5.9-7.9
				c0-1.4-0.4-2.9-1-4.1L9.2,35.8z"/>
		</g>
	</g>
</g>
</svg>
