<svg xmlns="http://www.w3.org/2000/svg" viewBox="0 0 349.19 322"><defs><style>.cls-1{fill:#f2f2f2;}.cls-2{fill:#f37021;}</style></defs><title>likeAsset 18@72x</title><g id="Layer_2" data-name="Layer 2"><g id="Layer_1-2" data-name="Layer 1"><g id="Layer_1-2-2" data-name="Layer 1-2"><path class="cls-1" d="M281.31,248.32a69,69,0,0,1-26.85-5.48c-10.48-4.44-42.32-18-42.32-56.9V173.45h24.63v12.49c0,16.1,7.91,26,27.26,34.28a41.63,41.63,0,0,0,38.23-2.29A39.13,39.13,0,0,0,320,183.24a17.89,17.89,0,0,0-17.19-18.58l-.64,0H129.92a68.75,68.75,0,0,1,2.57,19.08c0,26.44-15,47.39-42.26,59a66.32,66.32,0,0,1-60.78-4A62.93,62.93,0,0,1,0,184.35H0a42.46,42.46,0,0,1,40.69-44.16c.54,0,1.08,0,1.63,0H78.58a84.11,84.11,0,0,0-15.13-6.94l-23.17-1.38A40.52,40.52,0,0,1,0,91.65v-50A41.63,41.63,0,0,1,41.67,0H165.72c54.39,4.79,111,30.53,168.8,76.32l2.64,2.08a30.67,30.67,0,0,1-18.66,55H230.11a64.74,64.74,0,0,1-64.67-64V39.76H190V69.38a40.1,40.1,0,0,0,40.11,40H318.5a6,6,0,0,0,6-6A6.26,6.26,0,0,0,322,98.45l-2.85-2.56C265.63,53.08,213.38,29.07,164.05,24.63H41.67a16.72,16.72,0,0,0-17,16.44,5.23,5.23,0,0,0,0,.56v50.3a15.6,15.6,0,0,0,15.79,15.42l.65,0h.56l26.15,1.88h1.25A105,105,0,0,1,116.81,140H302.19a42.47,42.47,0,0,1,42.42,42.51c0,.47,0,.94,0,1.41h0a63.17,63.17,0,0,1-29.35,54.47A64.52,64.52,0,0,1,281.31,248.32ZM42.36,164.78a17.7,17.7,0,0,0-17.71,17.68c0,.24,0,.47,0,.71h0a39.12,39.12,0,0,0,17.76,34.69,41.63,41.63,0,0,0,38.23,2.29c18-7.7,27.26-19.91,27.26-36.36a42.66,42.66,0,0,0-4.44-19.08Z"/><path class="cls-1" d="M66.78,315.89V284.05h20a32.72,32.72,0,0,1,8.54.83,9.32,9.32,0,0,1,4.78,2.85,8,8,0,0,1,1.81,5.2,7.59,7.59,0,0,1-1.39,4.51,9.91,9.91,0,0,1-3.82,3.12,15.19,15.19,0,0,1-4.23,1.32A12.61,12.61,0,0,1,95.57,303a10.7,10.7,0,0,1,2,1.66,14.62,14.62,0,0,1,1.66,2l5.83,9.22H91.13l-6.38-9.71a8.19,8.19,0,0,0-2.22-2.5,5.79,5.79,0,0,0-2.91-.69h-1v12.9ZM78.85,297h5.07a22.81,22.81,0,0,0,3.19-.41,3.56,3.56,0,0,0,1.94-1,2.54,2.54,0,0,0,.77-1.81,2.66,2.66,0,0,0-1.25-2.36,8.31,8.31,0,0,0-4.44-.83H78.85Z"/><path class="cls-1" d="M108.83,284.05h32.26V291H120.9v5.06h18.66v6.52H120.9v6.25h20.81v6.94H108.83Z"/><path class="cls-2" d="M148.51,280.37h6.94V322h-6.94Z"/><path class="cls-1" d="M189.52,302.85l10.54,2.64a13.81,13.81,0,0,1-3.33,6A14.61,14.61,0,0,1,191,315.2a24.85,24.85,0,0,1-8.6,1.25,30.49,30.49,0,0,1-10.34-1.53,15.85,15.85,0,0,1-6.94-5.27,15.69,15.69,0,0,1-2.91-9.71,14.65,14.65,0,0,1,5.13-12.15,22.09,22.09,0,0,1,14.51-4.23A22.9,22.9,0,0,1,193.47,286a14.81,14.81,0,0,1,6.25,7.42l-10.62,1.95a8.34,8.34,0,0,0-1.18-2.15,7.92,7.92,0,0,0-2.5-1.74,9.5,9.5,0,0,0-3.26-.55,7.48,7.48,0,0,0-6.24,2.63,9.84,9.84,0,0,0-1.67,6.32,10.23,10.23,0,0,0,2,6.94,8.94,8.94,0,0,0,10.68.34A8.7,8.7,0,0,0,189.52,302.85Z"/><path class="cls-1" d="M229.83,310.62H216l-1.87,5.27H202l14.64-31.84h13.11l14.57,31.84H231.77Zm-2.5-6.94L223,292.24l-4.23,11.44Z"/><path class="cls-1" d="M248.35,315.89V284.05h20a33,33,0,0,1,8.47.83,9.07,9.07,0,0,1,4.79,2.85,8,8,0,0,1,1.8,5.2,7.59,7.59,0,0,1-1.39,4.51,9.49,9.49,0,0,1-3.81,3.12,15.36,15.36,0,0,1-4.24,1.32,12.82,12.82,0,0,1,3.13,1.11,11,11,0,0,1,1.94,1.66,13.93,13.93,0,0,1,1.66,2l5.83,9.22H273.05l-6.45-9.71a9.35,9.35,0,0,0-2.15-2.5,6.08,6.08,0,0,0-3-.69h-1v12.9ZM260.43,297h5.06a22.81,22.81,0,0,0,3.19-.41,3.37,3.37,0,0,0,1.94-1,2.54,2.54,0,0,0,.77-1.81,2.8,2.8,0,0,0-1.18-2.36,8.66,8.66,0,0,0-4.51-.83h-5.27Z"/></g></g></g></svg>