<svg xmlns="http://www.w3.org/2000/svg" xmlns:xlink="http://www.w3.org/1999/xlink" viewBox="0 0 807.72 413.98"><defs><style>.cls-1{isolation:isolate;}.cls-2{fill:url(#Áåçûìÿííûé_ãðàäèåíò_7);}.cls-3{fill:#c5e7f3;}.cls-4{fill:#2f2333;}.cls-5{fill:#2b87a1;}.cls-6{fill:#090a0e;}.cls-7{fill:#23a1db;}.cls-8{fill:#3dc0d9;}.cls-9{fill:#eae9e5;}.cls-21,.cls-9{mix-blend-mode:multiply;}.cls-10{fill:#e0e7e6;}.cls-11{fill:#423649;}.cls-12{fill:#439692;}.cls-13{fill:#63bfba;}.cls-14{fill:#006873;}.cls-15{fill:#565557;}.cls-16{fill:url(#Áåçûìÿííûé_ãðàäèåíò_1094);}.cls-17{fill:url(#Áåçûìÿííûé_ãðàäèåíò_496);}.cls-18{fill:#2b7889;}.cls-19{fill:url(#Áåçûìÿííûé_ãðàäèåíò_24);}.cls-20{fill:url(#Áåçûìÿííûé_ãðàäèåíò_23);}.cls-21{fill:#ceccc1;}.cls-22{fill:#261c29;}.cls-23{fill:#c32127;}.cls-24{fill:#352a33;}.cls-25{fill:#453641;}.cls-26{fill:#fff;}.cls-27{fill:#645560;}.cls-28{fill:#ec3a3a;}.cls-29{fill:#574753;}.cls-30{fill:#ed4d4d;}.cls-31{fill:#ea2d2d;}.cls-32{fill:#d52327;}.cls-33{font-size:15.43px;font-family:Arial-BoldMT, Arial;font-weight:700;}.cls-33,.cls-35{fill:#0068a5;}.cls-34{letter-spacing:-0.07em;}.cls-36{letter-spacing:-0.04em;}.cls-37{letter-spacing:-0.04em;}</style><linearGradient id="Áåçûìÿííûé_ãðàäèåíò_7" x1="780.3" y1="-1564.19" x2="499.28" y2="-1077.46" gradientTransform="translate(2012.69 143.44) rotate(-120)" gradientUnits="userSpaceOnUse"><stop offset="0.06" stop-color="#64c7da"/><stop offset="0.06" stop-color="#75cce1"/><stop offset="0.29" stop-color="#75cce1"/><stop offset="0.29" stop-color="#60c6d9"/><stop offset="0.35" stop-color="#60c6d9"/><stop offset="0.35" stop-color="#57b7c7"/></linearGradient><linearGradient id="Áåçûìÿííûé_ãðàäèåíò_1094" x1="667.73" y1="-1118.41" x2="660.62" y2="-1133.67" gradientTransform="translate(2012.69 143.44) rotate(-120)" gradientUnits="userSpaceOnUse"><stop offset="0.04" stop-color="#292a31"/><stop offset="1" stop-color="#b7b9bf"/></linearGradient><linearGradient id="Áåçûìÿííûé_ãðàäèåíò_496" x1="685.72" y1="-1136.65" x2="629.1" y2="-1103.65" gradientTransform="translate(2012.69 143.44) rotate(-120)" gradientUnits="userSpaceOnUse"><stop offset="0.05" stop-color="#1b4651"/><stop offset="1" stop-color="#2b87a1"/></linearGradient><linearGradient id="Áåçûìÿííûé_ãðàäèåíò_24" x1="576.96" y1="-1505.59" x2="597.11" y2="-1505.59" gradientTransform="translate(2012.69 143.44) rotate(-120)" gradientUnits="userSpaceOnUse"><stop offset="0.13" stop-color="#eaeeed"/><stop offset="0.13" stop-color="#f7fafa"/><stop offset="0.44" stop-color="#f7fafa"/><stop offset="0.44" stop-color="#d6dad9"/><stop offset="0.84" stop-color="#d6dad9"/><stop offset="0.84" stop-color="#bcbfbe"/></linearGradient><linearGradient id="Áåçûìÿííûé_ãðàäèåíò_23" x1="577.96" y1="-1505.22" x2="592.37" y2="-1505.22" gradientTransform="translate(2012.69 143.44) rotate(-120)" gradientUnits="userSpaceOnUse"><stop offset="0.13" stop-color="#b4c4c2"/><stop offset="0.13" stop-color="#c3d3d1"/><stop offset="0.44" stop-color="#c3d3d1"/><stop offset="0.44" stop-color="#a3b0ae"/><stop offset="0.84" stop-color="#a3b0ae"/><stop offset="0.84" stop-color="#8b9694"/></linearGradient></defs><title>likeAsset 17@72x</title><g class="cls-1"><g id="Layer_2" data-name="Layer 2"><g id="Layer_1-2" data-name="Layer 1"><path class="cls-2" d="M304.11,260.36c1.88-1.09,3.13-.26,4,1.9L596.75,95.63a74.72,74.72,0,0,1,74.74,0l125,72.25a23.22,23.22,0,0,1,2.51,1.66l.18-11a35.57,35.57,0,0,1,4,5.55,31.8,31.8,0,0,1,4.48,16.57v25.17a17.39,17.39,0,0,1-2.2,8.67,39.59,39.59,0,0,1-7.25,9.41,26.31,26.31,0,0,1-7.7,6.65l-.35.21L494.48,401.53l-7.08,4.09a62.23,62.23,0,0,1-62.25,0L308.82,338.49c-2.67-1.51-4.94-2.65-6.83-4.79a34.39,34.39,0,0,1-3.29-3.12l-.52-.59a27.93,27.93,0,0,1-2.67-3.48c-.43-.65-.92-1.38-1.38-2.19a15.86,15.86,0,0,1-.85-1.36,28,28,0,0,1-2.4-6v-7.05l0-28.19C293,272.73,297.21,264.35,304.11,260.36Z"/><path class="cls-3" d="M599.89,89.23,603.71,87a74.81,74.81,0,0,1,74.76,0l113.09,65.3c19.87,11.5,19.86,40.18,0,51.64L486.41,380.12a65,65,0,0,1-65,0L308,314.68a32.87,32.87,0,0,1-3.46-54.62,27.58,27.58,0,0,1,3.47-2.32Z"/><path class="cls-4" d="M612,86.26a62.27,62.27,0,0,1,62.26,0l31,17.89,85.35,49.28a26.33,26.33,0,0,1,0,45.62L487.34,374.09a60.26,60.26,0,0,1-14,5.9,62.08,62.08,0,0,1-48.31-5.91l-6.32-3.65-110-63.51a26.36,26.36,0,0,1,0-45.63Z"/><path class="cls-5" d="M721.77,116.36l63.9,36.9c17.56,10.12,23.53,32,0,45.6L487.41,371.07a60.65,60.65,0,0,1-14,5.92,62,62,0,0,1-48.3-5.93l-6.34-3.63L369.66,339Z"/><path class="cls-6" d="M597.58,100.26,771,200.7,501.59,356.25,328.39,256a25.35,25.35,0,0,1,3.17-2.12Z"/><path class="cls-6" d="M594.82,98.86,773.44,202.3,495.92,362.51,317.57,259.22a26.06,26.06,0,0,1,3.26-2.18Z"/><path class="cls-7" d="M595.29,101.58,768.75,202,499.3,357.57,326.11,257.27a25.23,25.23,0,0,1,3.16-2.12Z"/><polygon class="cls-8" points="768.69 201.98 673.22 146.7 416.62 309.69 499.24 357.53 768.69 201.98"/><path class="cls-9" d="M290.87,309.89a20.94,20.94,0,0,0,1.14,2.27,70.35,70.35,0,0,0,9.79,13.35,25.79,25.79,0,0,0,6.68,5.46l116.34,67.16a62.06,62.06,0,0,0,62.24,0l7.08-4.08L789.91,223.3l.36-.21a27.27,27.27,0,0,0,7.69-6.65,42.81,42.81,0,0,0,9.76-14.66v3.54a18.9,18.9,0,0,1-2.44,9.6,39.26,39.26,0,0,1-7,9,26.31,26.31,0,0,1-7.7,6.65l-.35.21L494.48,401.53l-7.08,4.09a62.23,62.23,0,0,1-62.25,0L308.82,338.49c-2.67-1.51-4.94-2.65-6.83-4.79-.79-.85-1.83-1.63-3.29-3.12l-.52-.59a27.93,27.93,0,0,1-2.67-3.48c-.43-.65-.92-1.38-1.38-2.19a15.86,15.86,0,0,1-.85-1.36,28,28,0,0,1-2.4-6Z"/><path class="cls-10" d="M393.66,330.29c0,3-4.2,5.46-9.37,5.46s-9.38-2.44-9.38-5.46,4.2-5.46,9.38-5.46S393.66,327.27,393.66,330.29Z"/><path class="cls-11" d="M392.51,328.89c-1.13-2-4.51-3.32-8.22-3.32-4.75,0-8.62,2.12-8.62,4.72a2.69,2.69,0,0,0,.4,1.4c1.13,2,4.5,3.32,8.22,3.32a12.72,12.72,0,0,0,6.16-1.44c1.58-.89,2.45-2.05,2.45-3.28A2.77,2.77,0,0,0,392.51,328.89Z"/><path class="cls-12" d="M389.9,330.78c-.75-1.3-3-2.21-5.45-2.2-3.16,0-5.72,1.4-5.72,3.12a1.93,1.93,0,0,0,.26.94c.75,1.29,3,2.2,5.45,2.2a8.41,8.41,0,0,0,4.09-1,2.67,2.67,0,0,0,1.63-2.18A2,2,0,0,0,389.9,330.78Z"/><path class="cls-13" d="M388.17,329.84c-.46-.81-1.86-1.37-3.38-1.37-2,0-3.56.87-3.56,1.94a1.1,1.1,0,0,0,.16.58,4,4,0,0,0,3.39,1.37,5.31,5.31,0,0,0,2.55-.59,1.67,1.67,0,0,0,1-1.36A1.11,1.11,0,0,0,388.17,329.84Z"/><path class="cls-14" d="M377.33,311.86l34.16,18.94a4.6,4.6,0,0,0,4.62,0l.33-.19a1.45,1.45,0,0,0,0-2.52l-33.75-19.53a4.6,4.6,0,0,0-4.62,0l-.34.19C376.76,309.31,376.36,311.3,377.33,311.86Z"/><path class="cls-6" d="M377.69,312.16l33.06,19.13a4.56,4.56,0,0,0,4.52,0l.33-.19c.95-.55.13-1.93-.82-2.48l-33-19.13a3.15,3.15,0,0,0-3.71,0l-.33.19A1.43,1.43,0,0,0,377.69,312.16Z"/><path class="cls-15" d="M378.85,311.53l33.06,19.17a2.12,2.12,0,0,0,2.15,0l.16-.09c.45-.26.06-.92-.39-1.18l-33.05-19.17a1.5,1.5,0,0,0-1.77,0l-.16.09A.68.68,0,0,0,378.85,311.53Z"/><path class="cls-6" d="M737.61,136.44c1.51,2.62-2.61,7.83-5.22,9.34l-1.46.84c-3.63,2.1-10.32,3.36-14,1.26l-38.24-22a5.41,5.41,0,0,1-2-2c-1.51-2.62,1.58-7.24,4.19-8.75l1.46-.84c3.63-2.09,11.35-4,15-1.85l38.25,22a5.48,5.48,0,0,1,2,2Z"/><path class="cls-16" d="M678.68,124.94l38.14,22c3.8,2.19,10.65.93,14.44-1.26h0c3.35-1.93,6.57-8.62,3.22-10.56l-38.15-22c-3.79-2.19-11.67-.33-15.46,1.85h0C677.52,116.91,675.33,123,678.68,124.94Z"/><path class="cls-17" d="M681.2,115.25c3.49-2,11-3.86,14.49-1.88l38.34,22,.08,0a2,2,0,0,1,.66.68c1.44,2.48-1.17,7.54-3.94,9.13-3.49,2-10,3.27-13.46,1.28L693.7,132.9,679,124.52a2.27,2.27,0,0,1-.72-.69C676.87,121.34,678.44,116.84,681.2,115.25Z"/><path class="cls-18" d="M715.33,124.64,734,135.4l.08,0a2,2,0,0,1,.66.68c1.44,2.48-1.17,7.54-3.94,9.13-3.49,2-10,3.27-13.46,1.28l-20-11.53Z"/><path class="cls-19" d="M420.3,386.74a12.41,12.41,0,0,1,2.82,4.11,4.89,4.89,0,0,1,.35.88c.62,1.92.46,3.66-.61,4.72-1.95,2-6.3.82-9.69-2.55a13.29,13.29,0,0,1-2.42-3.29c-1.35-2.55-1.49-5.08-.14-6.42C412.59,382.2,416.94,383.34,420.3,386.74Z"/><path class="cls-20" d="M411.14,385.84c-.5,1.87.72,4.74,3,7,2.88,2.88,6.5,3.93,8.08,2.36a2.44,2.44,0,0,0,.61-1.09c.5-1.87-.72-4.74-3-7a10.8,10.8,0,0,0-4.61-2.86,3.46,3.46,0,0,0-3.47.5A2.39,2.39,0,0,0,411.14,385.84Z"/><path class="cls-21" d="M410.75,390.61a29.47,29.47,0,0,1,4-2.41c2.21-1,4.71-1,7.72,2.72,0-.16-.05-.3-.1-.46a4.49,4.49,0,0,0-.35-.88,12.22,12.22,0,0,0-1.81-2.91c-3.35-3.34-7.65-4.45-9.62-2.48C409.26,385.53,409.4,388.06,410.75,390.61Z"/><path class="cls-22" d="M669.34,86.1l31,17.85,21.45,12.41,63.9,36.9c17.56,10.12,23.44,32.06,0,45.6L487.41,371.07a60.65,60.65,0,0,1-14,5.92,62,62,0,0,1-48.3-5.93l-6.34-3.63L369.66,339,308.81,303.9a26,26,0,0,1-13.1-21.79,26.06,26.06,0,0,0,13,24.81l110,63.51,6.32,3.65A62.08,62.08,0,0,0,473.38,380a60.26,60.26,0,0,0,14-5.9L790.55,199a26.33,26.33,0,0,0,0-45.62L705.2,104.13l-31-17.89A62,62,0,0,0,641.92,78,61.44,61.44,0,0,1,669.34,86.1Z"/><path class="cls-23" d="M540.21,286.43l-28.63-16.77s5-9.75,17.26-6.35S548,271,548,271Z"/><path class="cls-24" d="M528.75,282c0,11.43-7,24.7-15.55,29.64s-15.52-.32-15.51-11.75,7-24.7,15.55-29.64S528.76,270.59,528.75,282Z"/><polygon class="cls-24" points="503.52 312.7 513.56 318.52 532.41 274.79 521.96 268.82 503.52 312.7"/><path class="cls-25" d="M538.82,287.85c0,11.42-7,24.69-15.54,29.63s-15.52-.31-15.51-11.74,7-24.7,15.55-29.64S538.84,276.42,538.82,287.85Z"/><path class="cls-26" d="M534.46,290.36c0,8.22-5,17.75-11.18,21.31s-11.15-.23-11.15-8.45,5-17.75,11.18-21.3S534.47,282.15,534.46,290.36Z"/><path class="cls-25" d="M529.57,293.51c0,4.19-2.56,9.06-5.71,10.88s-5.7-.12-5.7-4.32,2.56-9.06,5.71-10.88S529.57,289.31,529.57,293.51Z"/><path class="cls-27" d="M528.62,294.05c0,3.5-2.14,7.56-4.76,9.07s-4.75-.1-4.74-3.59,2.13-7.56,4.75-9.07S528.62,290.56,528.62,294.05Z"/><path class="cls-23" d="M659.17,217.79,630.54,201s5-9.75,17.26-6.35,19.2,7.66,19.2,7.66Z"/><path class="cls-28" d="M683,157.84S648.62,130.08,621.39,124c-11.33-2.55-23.52,3.07-33,3.86l-10.16,9.9,73.1,44.93,29.94-15.94C684.09,165.09,685.74,159.47,683,157.84Z"/><path class="cls-29" d="M453.31,211.24c3.22,3.92,9.71,9.91,22.55,18.92,31,21.76,53,20.13,53,20.13L546,220.07c-18-8.31-45-20.26-56.5-22.44S462.78,204.47,453.31,211.24Z"/><path class="cls-27" d="M479.56,170.22l-28.78,34s-2,1.42,2.53,7c9.47-6.77,24.71-15.79,36.22-13.61s38.54,14.13,56.5,22.44l4.7-8.27Z"/><path class="cls-30" d="M479.56,170.22s3.14,4.58,21.92,17.64C519,200,550.73,211.8,550.73,211.8s22.72-17.2,40.72-27.19,49.42-23.13,49.42-23.13l-52.45-33.65s-13.85-13.62-37.6-1.23c-8.92,4.66-25,14.57-47.65,28.32C494.72,160.05,486.26,165.64,479.56,170.22Z"/><path class="cls-31" d="M481.77,174.06s15.74-9.6,38.18-22.38,51.65-29.63,51.65-29.63l2.72.85s-12.13,7.29-23.51,13.58c-9.24,5.1-68,39.46-68,39.46Z"/><path class="cls-31" d="M537.45,206.53s15.75-9.59,38.18-22.37,51.65-29.63,51.65-29.63l2.72.85s-12.13,7.29-23.51,13.57c-9.24,5.11-68,39.47-68,39.47Z"/><path class="cls-30" d="M633.56,157.79l15.14,2.63,15.3,8.4s-29.86-3.9-32.87-5.14S633.56,157.79,633.56,157.79Z"/><path class="cls-24" d="M647.71,213.38c0,11.43-7,24.7-15.55,29.64s-15.52-.32-15.51-11.75,7-24.7,15.55-29.64S647.72,202,647.71,213.38Z"/><polygon class="cls-24" points="622.47 244.07 632.52 249.88 651.37 206.15 640.92 200.18 622.47 244.07"/><path class="cls-25" d="M657.78,219.21c0,11.43-7,24.7-15.55,29.64s-15.52-.32-15.51-11.75,7-24.7,15.55-29.64S657.79,207.78,657.78,219.21Z"/><path class="cls-26" d="M653.41,221.72c0,8.22-5,17.76-11.17,21.31s-11.16-.23-11.15-8.45,5-17.75,11.18-21.3S653.42,213.51,653.41,221.72Z"/><path class="cls-25" d="M648.52,224.87c0,4.19-2.56,9.07-5.71,10.88s-5.69-.12-5.69-4.31,2.56-9.07,5.71-10.89S648.53,220.67,648.52,224.87Z"/><path class="cls-27" d="M647.57,225.42c0,3.49-2.13,7.55-4.75,9.06s-4.75-.1-4.75-3.59,2.13-7.56,4.76-9.07S647.58,221.92,647.57,225.42Z"/><path class="cls-31" d="M683,157.84c-6.77,1.23-12.9,11.11-25.12,8.85-3.4-.62-13.85-4.6-22.42-4-9.12.65-14.17,4.05-22.39,8.91-6.51,3.86-29.69,16.95-47.42,28.35-9.93,6.39-16.8,10.18-19.38,14.47-1.8,3-8.12,17.74-14.28,29.26a29.89,29.89,0,0,1-4.58,6.33L414.84,229.21s-6.33,6.56-10.4,18.44c-1.54,4.5-6.25,15.78-4,26,2,9.27,8.55,18.95,20.47,25.85,41.11,23.81,64.33,18.37,81.44,8.82.06-15.15,9.29-32.7,20.65-39.24s20.53.37,20.59,15.43l79.81-46.07c.5-4,2.63-16.89,4.84-20.67,4.43-7.57,15.6-18.06,20.56-17.57,15.85,1.56,9.29,18.22,12,16.63l6.06-3.49c12.44-7.16,18.78-21.39,20.82-30.36C688.81,178,688.45,161.46,683,157.84Z"/><path class="cls-30" d="M662.63,213.11c-.06-16.79-10.31-24.5-23-17.21-5.55,3.2-10.65,8.76-14.63,15.41-2.12,1.32-4.34,2.71-6.63,4.17-12,7.71-63.63,37.18-82.67,48-4-2.21-9.17-2-14.83,1.29-12.67,7.3-23,26.87-23,43.77.59-.33,1.18-.66,1.76-1l2.53-1.47c0-.16,2.58-1.13,2.58-1.3,0-14,7.72-29.31,18.22-35.36a16,16,0,0,1,6.19-2.19l-.52.29,6.68,1.4c3.1,2.53,4.85,7.66,4.84,14.79,0,.14,0,.29,0,.44l3.73-2.16c0-6-1.38-10.89-3.68-14.3l51.2-28.61c7-3.92,27.36-13.27,27.36-13.27-1.13,2.59-1.77,7.21-2.11,13.85.59-.33,1.18-.66,1.76-1l2.53-1.47c0-.16,2.58-1.13,2.58-1.3a45.51,45.51,0,0,1,3.37-16.63l.82-.46,6.44-9.4,8.71-8.26c1.41-.9-1.3.47-6.26,3.3a27.29,27.29,0,0,1,5.14-3.91c10.49-6,18.27.11,18.26,14.1,0,.15-1.09.48-1.09.63Z"/><path class="cls-32" d="M523,269.07c-11.36,6.54-20.59,24.09-20.65,39.24.53-.29,1.05-.59,1.57-.9l2.27-1.31c0-.15,0-.28,0-.43,0-12.54,7.65-27.1,17.06-32.53s17,.35,17,12.9c0,.13,0,.26,0,.39l3.35-1.93C543.5,269.44,534.31,262.53,523,269.07Z"/><path class="cls-30" d="M595.22,132.11s10.68-7.19,23-4.36,26.15,12.67,26.15,12.67l-21.54,8.67Z"/><path class="cls-32" d="M641.92,200.43c-11.36,6.54-20.58,24.09-20.65,39.24.54-.29,1.06-.59,1.58-.89l2.27-1.32c0-.15,0-.28,0-.43,0-12.54,7.66-27.1,17.07-32.52s17,.35,17,12.89c0,.13,0,.26,0,.39l3.34-1.93C662.46,200.8,653.27,193.89,641.92,200.43Z"/><path class="cls-28" d="M450.78,204.26s-14.12,10-33.68,23.08c-9.63,6.47-13.05,24.69,9.64,39.53,26.5,17.33,46.63,15.47,63.47,5.66,18.1-10.54,38.64-22.24,38.64-22.24s-13.92-.07-41.71-16.55A157.93,157.93,0,0,1,450.78,204.26Z"/><path class="cls-30" d="M462.55,274.85,512,246.74l6.35,2.58S476.74,275.55,462.55,274.85Z"/><path class="cls-30" d="M453.05,208.33s-23.45,15-32.48,22.52S416,249.22,416,249.22l51.56-30.44Z"/><path class="cls-25" d="M541.23,248.24a2.63,2.63,0,0,1-3.74-3.31c4.67-11,13.52-30.83,17.32-33.29,5-3.2,22.14-13.46,43.11-25.89,15.5-9.19,29.26-17.19,35.75-15.38,2.51.7,9.4,5.4,14.42,9a4.58,4.58,0,0,1-.39,7.7Z"/><path class="cls-29" d="M570.62,121.41s21,11.51,30.51,17.75c14.09,9.27,33,19.62,33,19.62l21.45,5.53c-5.83-3.54,0,0-11.29-6.34-16.09-9.05-33.65-20.22-36.51-22-3.92-2.43-11.53-6.41-15.6-8.5C583.89,123.23,573.2,121.08,570.62,121.41Z"/><path class="cls-26" d="M453.57,293.05c2.25-4.29,6.22-7.52,11-6.95,3.65.42,4.13-.16,10.07-.75A41,41,0,0,0,490.55,280c4.18-2.49,4.55,1.77,4.1,3.38A18.74,18.74,0,0,1,482,295.85C467.52,300.58,453.57,293.05,453.57,293.05Z"/><path class="cls-25" d="M447.08,278.43c3.92.83,7.95,1.79,10.61,2.38l.7-.79s-18.68-4.2-31.65-13.15a46,46,0,0,1-12.46-12.43l-.45,1.67a50.42,50.42,0,0,0,4.75,7C423.83,269.68,440.62,277.07,447.08,278.43Z"/><path class="cls-25" d="M445.88,281.89c3.12.66,6.47,1.43,9.09,2l1.58-1.79c-2.9-.61-6.81-1.48-10.55-2.46-7.18-1.88-17.48-7.34-24.25-11.92a26.24,26.24,0,0,1-8.38-9.94l-.71,2.59a42.82,42.82,0,0,0,4.72,6.13C423,272.79,439.41,280.52,445.88,281.89Z"/><path class="cls-25" d="M419.11,275.21a25.68,25.68,0,0,1-7.78-8.8,9,9,0,0,0,3,6.8A58.27,58.27,0,0,0,425.23,281a163.5,163.5,0,0,0,18.14,8.57,7.62,7.62,0,0,0,6.9-.77c-2.18-.49-4.58-1.05-6.91-1.66C436.18,285.26,425.88,279.79,419.11,275.21Z"/><path class="cls-25" d="M420.55,271.19a31.55,31.55,0,0,1-8.39-9l-.52,1.88c0,.08,0,.17-.05.26a62.31,62.31,0,0,0,4.35,6.19c5.25,6.61,22,14,28.5,15.37,2.45.51,5.05,1.1,7.34,1.61l.1-.1,1.92-2.18c-2.67-.57-5.9-1.31-9-2.12C437.62,281.24,427.31,275.77,420.55,271.19Z"/><path class="cls-29" d="M415.94,270.54a62.31,62.31,0,0,1-4.35-6.19,9.6,9.6,0,0,0-.26,2.06,25.68,25.68,0,0,0,7.78,8.8c6.77,4.58,17.07,10.05,24.25,11.93,2.33.61,4.73,1.17,6.91,1.66a7.33,7.33,0,0,0,1.51-1.28c-2.29-.51-4.89-1.1-7.34-1.61C438,284.54,421.19,277.15,415.94,270.54Z"/><path class="cls-29" d="M445.88,281.89c-6.47-1.37-22.84-9.1-28.5-15.37a42.82,42.82,0,0,1-4.72-6.13l-.5,1.82a31.55,31.55,0,0,0,8.39,9c6.76,4.58,17.07,10.05,24.25,11.93,3.1.81,6.33,1.55,9,2.12l1.17-1.33C452.35,283.32,449,282.55,445.88,281.89Z"/><path class="cls-29" d="M421.75,267.74c6.77,4.58,17.07,10,24.25,11.92,3.74,1,7.65,1.85,10.55,2.46l1.14-1.31c-2.66-.59-6.69-1.55-10.61-2.38-6.46-1.36-23.25-8.75-28.5-15.36a50.42,50.42,0,0,1-4.75-7l-.46,1.69A26.24,26.24,0,0,0,421.75,267.74Z"/><path class="cls-26" d="M408.52,238s-.47,5.87-.48,12.25c0,4.76-2,11.25-2,11.25s-2.38-9-2.05-12.24A23.22,23.22,0,0,1,408.52,238Z"/><path class="cls-25" d="M408.47,284.79s0-11.74,7.35-6.66A126.61,126.61,0,0,0,433,288.54c5.44,2.57,9.35,4.43,10.88,7.27s1.62,10.43,1.62,10.43-5.16-.26-22.7-10.17C409.68,288.64,408.47,284.79,408.47,284.79Z"/><path class="cls-26" d="M414,279.93v7s5.39,3.81,9.73,6.63c2.83,1.84,13.62,6.78,13.62,6.78v-6.76s-7.65-3.46-13.62-6.91A72.08,72.08,0,0,1,414,279.93Z"/><path class="cls-32" d="M399.85,269.2s-1,10.14,4,17.49,17.82,20.47,40.52,27c25.41,7.29,41.62,5,51,.75s10.48-3.92,10.72-8.33-3.84-1.4-3.84-1.4-4.14,7-23.86,8.16c-10.45.64-23.9-1.26-35.12-4.61-9.95-3-19.75-9-29.38-16C400.4,282.32,399.85,269.2,399.85,269.2Z"/><path class="cls-25" d="M459.8,302.67a1.44,1.44,0,0,0-1.22,2.15,13.76,13.76,0,0,0,2.53,3.45c3.26,3,18.11,3.22,19.78,1.68s.55-6.39-3.41-6.26C472,303.88,464.51,302.6,459.8,302.67Z"/><path class="cls-25" d="M400.81,259.43s1.1,5.07,1.86,7.05-2.82,2.72-2.82,2.72A51.91,51.91,0,0,1,400.81,259.43Z"/><path class="cls-26" d="M432.51,277.07c-.44,1.38-3,1.49-5.74.24s-4.59-3.38-4.15-4.76,3-1.49,5.75-.24S433,275.69,432.51,277.07Z"/><path class="cls-25" d="M447.89,206.29s1.78,4.09,11.6,11.79c9.49,7.44,30.15,22,43.7,27.47s22.25,8.84,25.66,4.74,20.74-39.16,20.74-39.16l-2-.82s-18.45,35.88-20.7,37.86-19.44-4.54-49.91-24.39c-11.57-7.54-26.22-19.52-26.22-19.52Z"/><path class="cls-25" d="M479.56,170.22l-1.37,1.62a157.11,157.11,0,0,0,24.24,18.28c13.52,8.1,45.86,22.8,45.86,22.8l1.3-1.79s-30.06-12.72-46.23-23.45S479.56,170.22,479.56,170.22Z"/><polygon class="cls-32" points="623.8 233.59 542.05 280.73 542.04 285.33 543.25 284.63 624.82 237.59 623.8 233.59"/><path class="cls-29" d="M585.64,195.75l0,23.7L550.7,239.6s-.07-9,0-12.66a21.27,21.27,0,0,1,2.17-8.2,20.46,20.46,0,0,1,7.28-7.71C569.53,205.29,585.64,195.75,585.64,195.75Z"/><path class="cls-29" d="M590.2,193.64l0,23.8L627,195.79s0-9-.44-11.75c-.43-2.39-1.7-9.54-1.7-9.54Z"/><path class="cls-29" d="M628.26,173.51s1.34,6.72,1.72,9.13.56,11.3.56,11.3,8.37-5.05,10.3-6,3.49-3.81-1.59-7.62A118.58,118.58,0,0,0,628.26,173.51Z"/><path class="cls-25" d="M686.37,165.17l-.47.31a4.88,4.88,0,0,0-2.21,4.07v5.39a79.28,79.28,0,0,1-.77,9.77l5-3.13a20.5,20.5,0,0,0,1.39-11.41A7.28,7.28,0,0,0,686.37,165.17Z"/><path class="cls-30" d="M657.8,198.74s15.55-7,26.43-15a40.66,40.66,0,0,0,4.53-4.43s1.36,2-3.51,8.7c-1.65,2.26-18.76,14.64-24,16.41C658.83,198.78,657.8,198.74,657.8,198.74Z"/><text class="cls-33" transform="translate(39 209.72) scale(1 1.06)">PRENO<tspan class="cls-34" x="54.87" y="0">T</tspan><tspan x="63.15" y="0">AZIONE meccanico</tspan></text><text/><path class="cls-35" d="M264.65,204.87h46a10.93,10.93,0,1,0-.05-2.32H263.76l-19.7,17.73H31.16v2.31H245ZM321.43,195a8.49,8.49,0,1,1-8.37,9.88h4.75a3.89,3.89,0,1,0-.14-2.32H313A8.51,8.51,0,0,1,321.43,195Z"/><text class="cls-33" transform="translate(99.01 130.11) scale(1 1.06)">PROMEMORI<tspan class="cls-36" x="96.87" y="0">A</tspan><tspan x="107.44" y="0"> </tspan><tspan x="0" y="17.47">aggiornamenti e problemi</tspan></text><path class="cls-35" d="M332.24,141.26h45.95a10.93,10.93,0,1,0-.05-2.32H331.35l-19.7,17.73H86.75V159H312.54ZM389,131.38a8.5,8.5,0,1,1-8.38,9.88h4.76a3.87,3.87,0,1,0-.15-2.32h-4.67A8.5,8.5,0,0,1,389,131.38Z"/><text class="cls-33" transform="translate(216.88 79) scale(1 1.06)">PROMEMORI<tspan class="cls-36" x="96.87" y="0">A</tspan><tspan x="107.44" y="0" xml:space="preserve"> scadenze </tspan></text><path class="cls-35" d="M481.43,61.83a11,11,0,0,0-10.89,10H423.76l-19.7,17.73H213.16v2.31H405l19.69-17.73h45.95a10.93,10.93,0,1,0,10.84-12.32Zm0,19.43a8.5,8.5,0,0,1-8.37-7.11h4.75a3.89,3.89,0,1,0-.14-2.31H473a8.5,8.5,0,1,1,8.44,9.42Z"/><path class="cls-35" d="M573.83,2.31a10.94,10.94,0,0,0-10.89,10H516.15L496.45,30H239.56v2.32H497.34L517,14.63h46A10.93,10.93,0,1,0,573.83,2.31Zm0,19.43a8.5,8.5,0,0,1-8.37-7.11h4.75a3.89,3.89,0,1,0-.14-2.32h-4.68a8.49,8.49,0,1,1,8.44,9.43Z"/><text class="cls-33" transform="translate(247.27 19.48) scale(1 1.06)">RICERC<tspan class="cls-37" x="59.15" y="0">A</tspan><tspan x="69.72" y="0" xml:space="preserve"> E GESTIONE </tspan></text><text class="cls-33" transform="translate(419.88 14.03) scale(0.58 0.62)"> </text><text class="cls-33" transform="translate(422.38 19.48) scale(1 1.06)">VEICOLI</text></g></g></g></svg>