<svg xmlns="http://www.w3.org/2000/svg" viewBox="0 0 285.05 285.11"><defs><style>.cls-1{fill:#fbb040;}</style></defs><title>likeAsset 13@72x</title><g id="Layer_2" data-name="Layer 2"><g id="Layer_1-2" data-name="Layer 1"><path class="cls-1" d="M142.53,285.11a32.26,32.26,0,0,1-22.88-9.78c-6.87-6.87-21.29-27.57-6.74-71.21a206.38,206.38,0,0,1,16.17-35.67,604.27,604.27,0,0,0-51.6,46.43,5.15,5.15,0,1,1-7.28-7.28A601.39,601.39,0,0,0,116.54,156a230.19,230.19,0,0,1-20.75,10.43C59.08,182.52,36,179.54,23.14,174.2,8.87,168.29,0,156.16,0,142.55s8.87-25.73,23.14-31.64c12.88-5.34,35.94-8.32,72.65,7.77q10.14,4.44,20.75,10.42A602.85,602.85,0,0,0,70.2,77.51a5.15,5.15,0,0,1,7.28-7.28,604.27,604.27,0,0,0,51.6,46.43A206.38,206.38,0,0,1,112.91,81c-14.55-43.64-.13-64.34,6.74-71.21,13-13,32.71-13,45.75,0,6.87,6.87,21.29,27.57,6.74,71.21A205.63,205.63,0,0,1,156,116.66a604.27,604.27,0,0,0,51.6-46.43,5.15,5.15,0,1,1,7.28,7.28,602.85,602.85,0,0,0-46.34,51.59q10.61-6,20.75-10.42c36.71-16.09,59.77-13.11,72.65-7.77,14.27,5.91,23.14,18,23.14,31.64s-8.87,25.74-23.14,31.65c-12.88,5.34-35.94,8.32-72.65-7.77A230.19,230.19,0,0,1,168.51,156a601.39,601.39,0,0,0,46.34,51.6,5.15,5.15,0,0,1-7.28,7.28A604.27,604.27,0,0,0,156,168.45a205.63,205.63,0,0,1,16.17,35.67c14.55,43.64.13,64.34-6.74,71.21A32.26,32.26,0,0,1,142.53,285.11Zm0-119c-8.89,14.6-15.55,28.44-19.84,41.32-12.73,38.19-1.27,55.14,4.25,60.66,9,9,22.14,9,31.18,0,5.51-5.52,17-22.47,4.25-60.66C158.07,194.5,151.41,180.66,142.53,166.06Zm23.39-23.51A234.11,234.11,0,0,0,193.4,157c26,11.42,49,14.15,64.57,7.7,10.5-4.36,16.78-12.63,16.78-22.14s-6.28-17.77-16.78-22.13c-15.59-6.45-38.52-3.72-64.57,7.7A235.49,235.49,0,0,0,165.92,142.55ZM46.26,117a50.07,50.07,0,0,0-19.18,3.42c-10.5,4.36-16.78,12.63-16.78,22.13s6.28,17.78,16.78,22.14c15.59,6.45,38.52,3.72,64.58-7.7a234,234,0,0,0,27.47-14.44,235.39,235.39,0,0,0-27.47-14.43C74.85,120.75,59.34,117,46.26,117Zm105.3,35.09,1.89,1.41c-.49-.65-1-1.3-1.46-2l-.11.08C151.77,151.77,151.66,151.93,151.56,152.09Zm-18.5-.55c-.48.66-1,1.31-1.46,2l1.89-1.41c-.1-.16-.21-.32-.32-.47Zm7.77-7.15,1.7,1.18,1.69-1.18,1.28-1.84-1.28-1.83-1.69-1.18-1.7,1.18-1.27,1.83C140,143.17,140.41,143.78,140.83,144.39Zm11-10.9.11.07,1.46-1.95L151.56,133Zm-20.28-1.88,1.46,1.95a.41.41,0,0,0,.11-.07l.32-.47ZM142.53,10.29a22,22,0,0,0-15.59,6.78c-5.52,5.51-17,22.47-4.25,60.66C127,90.61,133.64,104.45,142.53,119c8.88-14.59,15.54-28.43,19.84-41.31,12.73-38.19,1.26-55.15-4.25-60.66A22,22,0,0,0,142.53,10.29Z"/></g></g></svg>