<svg xmlns="http://www.w3.org/2000/svg" viewBox="0 0 196.85 196.85"><defs><style>.cls-1{fill:#fff;}</style></defs><title>likeAsset 8@72x</title><g id="Layer_2" data-name="Layer 2"><g id="Layer_1-2" data-name="Layer 1"><path class="cls-1" d="M98.42,196.85a5.16,5.16,0,0,1-5.08-4.29c-11.68-69-20-77.37-89-89.06a5.15,5.15,0,0,1,0-10.16c69.05-11.68,77.37-20,89.05-89a5.15,5.15,0,0,1,10.16,0c11.69,69.05,20,77.37,89.06,89.05a5.15,5.15,0,0,1,0,10.16c-69,11.69-77.37,20-89.06,89.06A5.15,5.15,0,0,1,98.42,196.85Zm-66-98.43c21,4.79,35.06,10.58,45.24,20.76s16,24.18,20.75,45.24c4.79-21.06,10.58-35.07,20.76-45.24s24.18-16,45.24-20.76c-21.06-4.79-35.07-10.57-45.24-20.75s-16-24.19-20.76-45.24c-4.79,21-10.57,35.06-20.75,45.24S53.48,93.63,32.43,98.42Z"/></g></g></svg>