<svg xmlns="http://www.w3.org/2000/svg" viewBox="0 0 798.52 461.88"><defs><style>.cls-1{fill-rule:evenodd;}</style></defs><title>likeAsset 5@72x</title><g id="Layer_2" data-name="Layer 2"><g id="Layer_1-2" data-name="Layer 1"><path class="cls-1" d="M610.83,300.68c.82,2.54,6.45,3,9.61,2,1.76-1.22,1.9-3.56,2.61-5.27.18-1.93-.14-5,.2-6.59.49,2.79,3.25,4.82,7.81,4.78a5,5,0,0,0,1.4,2.47c2.9.81,7.81,1.76,9.62-.33,2.67-3.07-.16-9.92.8-14,.22-.62-.75-.26-.6-.83.44,0,.09-.58.2-.82a5.16,5.16,0,0,1,3-.66c1.29,1.79,3.65,2.71,6.81,3,.46,1.07-.51,2.3-1,3.13,1,.3,1.58,1.23,2.8,1.32s2.25-.85,3-1c.52-.1.65.12,1,0,.11,0,0-.42.2-.5s.55.2.6.17c.35-.2.29-.73.6-1,.75-.63,2.23-.7,2.2-1.48a9.28,9.28,0,0,0,1.81.33,5.11,5.11,0,0,1,2.8-1.32,5.28,5.28,0,0,0,1.2,1c1.25-.73,2.23-.22,3.81,0a8.11,8.11,0,0,1,3.8-.82c1.3-1.19,2.1-2.78,3.41-4,.56.09.56.64.8,1,5,1.45,13.53.33,13.62-3.79,1.81.06,1.78-1.93,3.61-2.47a11.41,11.41,0,0,1,2.81-.16c3.1.15,6.31.75,9.21.66,6.86-.22,12.12-1.51,16.23-3.46-.62-1.24,1.23-1.24,1.2-2.31,0-1.66-4.28-2.77-6.41-2.8-1.19,0-2.27.65-3.61,1-5.37,1.36-12.77.25-17.62.82-1.67-1-3.79-.52-5.61-1.32-1.18.35-2.43.64-2.81,1.65-1.87-.18-4.37,1.74-5.81.33v-1c-1.27-1.57-3.87-1.28-5.6-2.64-1.84-.35-3,.93-4.61,1.32-.82.12-.69-.53-1.6-.33-4.74-.05-4.78,3.76-7.22,5.6-.53-3.91-5.46-3.52-9-3.46-.27-2.85-2.63-4-5.81-4.45-.54-1.42-2.06-2-2.6-3.46-.55-.12-.4.33-.8.33-1.33-2-4.66-1.68-7.41-2.31-2.71.41-3.42,2.46-6.41,2.64-1-2.6-6.56-3.14-9.82-2.31a3.46,3.46,0,0,0-2.4-3.3c-.25-.09-.79.09-1.2,0-1.9-.39-2.67-2.16-4.61-1-2.65-1.33-8.57-2.69-11.41-.49-.51-1.51-1.79-2.38-2.41-3.79-2.68-.49-4.79-1.94-7.61-1.82-1.57.69-3.47,1.1-4.61,2.14,0,.91-.15,1.64-.8,2-4.13-.91-9.65-1.75-10.82,2-1.66-.22-1,1.51-2.6,1.32-.6-.11-.3-1-.8-1.16-4.22-1.3-9.37-1.21-11.62,1.48-1.44-1.12-2.51-2.54-4.2-3.46a15.71,15.71,0,0,1-5.61-.82c-3.78.41-4.94,3-6.22,5.43-2.93-.1-5.08,1.57-6.81,3-1.39-.82-3.2-.29-4.6-1-2.27.88-4.74,1.6-6.21,3.13a66.45,66.45,0,0,1-3,7.58c-1.75-.53-2.31-2.41-4.21-3a26.81,26.81,0,0,0-5.61-.66c-1.18,0-2,.73-3.2.5a37.48,37.48,0,0,0-5.41,4.94,10.36,10.36,0,0,1-2.41,4.12c-.14.5.21.6.2,1-.52.23-.63.79-1.4.82-.56,1.87-2.56,3.35-2.41,5.27a9.19,9.19,0,0,0-3.4,5c-1.83.58-1.91,2.6-3.41,3.46-.51-6.52-1-11.78-1.39-18.62a4.57,4.57,0,0,0-1-.83c0-2.29-2.12-2.86-3-4.45-.64,0-.88-.37-1.6-.33a1.93,1.93,0,0,1-.6-1.15c-4.31-1.12-10.88-2.2-13.82,1-.38-.31-.37.09-1,0a79.67,79.67,0,0,0-7.62,8.4h-1c-.66,1.54-2.86,1.82-3.41,3.46-2.52.35-3,1.84-5.41,2-.61-.27-1.16-.59-1.2-1.32a31.21,31.21,0,0,1-7-5.77c-1-.59-2.42-.87-2.8-2a29.32,29.32,0,0,0-12.42-3.95c-1.77-1-4.6-.1-6.81-.5-.53-.05-.16.64-.8.49.19-.59-.79-.23-1.2-.33-2.63,1.93-7.18.79-10.22.5-2.54-.25-3.35.73-5.21,1-.26,0-.37-.26-.8-.16a19.17,19.17,0,0,1-2.2.82c-4,.54-7.23,2-10.82,1.32-4.67,2.36-13,1.67-18.83,2.63-.82,0-.85-.72-1.8-.66a41.8,41.8,0,0,1-7,2c-1.21-2.57-3.88-3.95-6-5.77a64.76,64.76,0,0,0-16.63-1.48c-6.26.14-12.16-1.27-18.22-1.16a28.32,28.32,0,0,0-6.41-1.15c-2.63-.23-5.5-.61-8-.66-1.74,0-3.63.29-5.6.16-5-.32-10.48-1.21-14.43.33a47.69,47.69,0,0,0-12.82,3.13c-2.36-.5-5.14,1.8-7.41,2-.29.43.27,1.47-.4,1.65V271a50.39,50.39,0,0,0-11.62,3c-.39,1.15,1.56.68.8,1.65-.62-.09-.86-.5-1.4-.66.18-.13.89-1,0-1-1-.23-1.36,1.41-3.41.83-.28.64-1,.89-1,1.81,6.41.34,16.92-.25,23-2,.67-.07-.53-.64.4-.5.34.07,0,.21,0,.5,7.71-1.52,14.81-3.6,23.44-3.3,7.69.28,15.25.54,22.43,1.32,4.63.51,10,1.49,14.22,1.65,5.68.23,12.54-.41,16.63,1.16,1.58,1.58,2.13,4.51,4.6,5.6a22,22,0,0,0,7.41,1.16c2.93,0,5.27-1,7.42-1.16,4.44-.37,7.26-1.29,11-1.81,4.34-.6,8.64-.32,12.62-.49,3.55-.15,5.52-1.24,8.62-1.32a20.65,20.65,0,0,1,4.8-1.64c1.84,3.05,7.54,2.93,11.62,2,.09-3.34,4.18-3.38,8.22-3.46.82.25,1.3.79,2.6.66,2.67,1.31,5,2.89,7.61,4.28.51,1.46,2.3,2.05,3.4,3,.79.65,1.23,1.62,2.21,2.14.23.13.74-.1,1,0,1,.39,1.82,1.33,3,1.81s2.52.42,3,1c2.11-.14,4.6.09,7.21,0,1.53-.44,2.55-1.3,4.61-1.31.29-.48,1-.59,1.2-1.16a16.68,16.68,0,0,0,7-4.78c3.75-1.47,4.34-5.55,8.62-6.58-.09.73.54.87.8,1.31-.47,2.18.48,4.49.6,6.76.22,4.37.23,9,.59,14.17.47.45,1.14-.29,1.6.16-1.89,1-.37,2-.6,3.46.81.72,1.61,1.43,2.4,2.15,1.51-.39,2.44.76,3.81.82s2.78-.84,4.41-.33c2.85-1.17,5.59-2.43,6.61-5.1a.63.63,0,0,0,.8,0c1.05-1.56,2.94-2.42,4-4,.59-1.27,1.9-1.95,2.2-3.46,3.14-2.14,3.33-6.71,6.62-8.73.29,3.7-.61,7.8-.41,11.37,1.81.91,2.66,2.54,5.21,2.8,1.62.17,3.06-.37,4.81,0a25,25,0,0,1,2.6-1.65,8.81,8.81,0,0,1,2.21-3.29c.64.57.33,1.92.39,3,1,1.19,2.94,1.66,4.61,2.31,1.73-.35,3.28.07,5-.16,1-.14,1.85-.74,2.8-.83,1.68-.14,3.43.46,4.81-.49.22-1.09,1.21-1.53,1.8-2.31.93,2.57,5.73,1,8,2.31,4.26-1.41,4-5.6,6.41-8.4.36-1-.62-1.79-.2-2.31.53-.05-.19.93.6.66.45-.73.22-2,1.2-2.31.21,1.26,1.44,2.18,1.2,3.3,1.19.84,3.17,1,4.41,1.81.77-.52,2.36-.36,3.61-.49,2.25,1.84,4.94,2.51,8.81,2,.87.38,1.25,1.17,2,1.65,3.61.53,7.48,1.35,10-.33.65,2.38,1.49,4.16,4.6,4.61,1.31.19,3-.34,4.41,0,1,.24,1.75,1.35,2.4,1.82,1.75-.15,2.93.58,4.41.16C611.46,297.58,610.39,299.34,610.83,300.68Zm-112.18-2.81c-.17-.64.49-.59.61-1,.43,0,.43.42.4.82A1.56,1.56,0,0,1,498.65,297.87Zm1.61-2.14c-.53,0-.66-.23-.6-.66h.6Zm6.81-6.26c-.34-.22-.79-.35-.8-.83C506.83,288.67,507.12,288.93,507.07,289.47Zm9.42-.66c-.58,0-1.1,0-1-.5C515.8,288.05,516.4,288.39,516.49,288.81Zm143.62-5.59c-.08-.34.14-.43.2-.65.51,0,.78.24.8.65A.84.84,0,0,1,660.11,283.22Zm-215.73-1.34c.37.07,1.2-.23,1,.33C445.08,282.47,444.24,282.45,444.38,281.88Zm40.26.17H484c-.06-.43.07-.71.6-.66Zm20.43-3.13c-.32.05-.34-.16-.6-.16-.06-.44.28-.55.8-.5C505.36,278.61,505.14,278.7,505.07,278.92Zm-30.85-1.82c-.37-.18-1-.19-.8-.82C473.77,276.49,474.21,276.62,474.22,277.1Zm-49.67-4.29a.87.87,0,0,1,1,0C425.65,273.5,424.33,273.77,424.55,272.81Zm-148.83.64c-.83.05-.14-1,0-1.15C276.63,272.32,275.35,272.84,275.72,273.45Zm194.3-.63a.91.91,0,0,1-.6-1C470.14,271.73,470,272.32,470,272.82Zm-129.2-1c-.54,1.66-1.92-.69,0,0Zm81.93-.48c.57,0,1.09,0,1,.49C423.45,272.07,422.71,271.84,422.75,271.33Zm47.47-.82c.71-.32,1.1.06,1.6.33C471.67,271.58,470,271.48,470.22,270.51Zm-184.29.14c-.5,0-.77-.24-.8-.66.36,0,.43-.2.8-.16A.53.53,0,0,1,285.93,270.65Zm186.9-1.13c-.57,0-.86-.28-.81-.82a1.64,1.64,0,0,1,1,.16A.79.79,0,0,0,472.83,269.52Z"/><path d="M102.24,194.06a25.6,25.6,0,1,1-25.6-25.61A25.6,25.6,0,0,1,102.24,194.06Z"/><path d="M51.2,216.73a25.6,25.6,0,1,1-25.6-25.6A25.6,25.6,0,0,1,51.2,216.73Z"/><path d="M198.85,129.76a25.6,25.6,0,1,1-25.6-25.61A25.6,25.6,0,0,1,198.85,129.76Z"/><path d="M88.31,189.92a25.6,25.6,0,1,1-25.6-25.61A25.59,25.59,0,0,1,88.31,189.92Z"/><path d="M129.34,215.29a25.6,25.6,0,1,1-25.6-25.6A25.59,25.59,0,0,1,129.34,215.29Z"/><path d="M114.74,185.34a25.6,25.6,0,1,1-25.6-25.6A25.59,25.59,0,0,1,114.74,185.34Z"/><path d="M117.92,207.19a25.6,25.6,0,1,1-25.6-25.61A25.59,25.59,0,0,1,117.92,207.19Z"/><path d="M138.57,185.54A25.6,25.6,0,1,1,113,159.93,25.59,25.59,0,0,1,138.57,185.54Z"/><path d="M136.44,214.37a25.61,25.61,0,1,1-25.61-25.61A25.6,25.6,0,0,1,136.44,214.37Z"/><path d="M154.81,250.71a25.6,25.6,0,1,1-25.6-25.61A25.6,25.6,0,0,1,154.81,250.71Z"/><path d="M280.63,251.9A25.6,25.6,0,1,1,255,226.3,25.6,25.6,0,0,1,280.63,251.9Z"/><path d="M268.49,176.75a25.61,25.61,0,1,1-25.61-25.6A25.59,25.59,0,0,1,268.49,176.75Z"/><path d="M220.54,168.44h22.23q10.53,0,16,1.64a15.84,15.84,0,0,1,8.76,6.64q3.33,5,3.33,16.1,0,7.52-2.35,10.47t-9.29,4.55q7.72,1.74,10.48,5.79t2.75,12.42V234q0,8.69-2,12.87a10.71,10.71,0,0,1-6.32,5.72q-4.33,1.53-17.78,1.53H220.54Zm22.28,14.66v19.05c1,0,1.69-.05,2.22-.05,2.19,0,3.58-.54,4.18-1.62s.9-4.15.9-9.23a15.06,15.06,0,0,0-.74-5.64,3.55,3.55,0,0,0-1.93-2A16.59,16.59,0,0,0,242.82,183.1Zm0,32.38v24c3.14-.1,5.14-.6,6-1.48s1.29-3.05,1.29-6.51v-8q0-5.5-1.16-6.66C248.18,216,246.14,215.59,242.82,215.48Z"/><path d="M343.7,220.24a25.6,25.6,0,1,1-25.6-25.61A25.6,25.6,0,0,1,343.7,220.24Z"/><path d="M237.72,215.48a25.61,25.61,0,1,1-25.61-25.6A25.6,25.6,0,0,1,237.72,215.48Z"/><path d="M304.13,123.36a25.6,25.6,0,1,1-25.6-25.6A25.59,25.59,0,0,1,304.13,123.36Z"/><path d="M237.72,183.1a25.61,25.61,0,1,1-25.61-25.6A25.59,25.59,0,0,1,237.72,183.1Z"/><path d="M310.22,230.2a25.6,25.6,0,1,1-25.6-25.6A25.6,25.6,0,0,1,310.22,230.2Z"/><path d="M270.52,160.13a25.6,25.6,0,1,1-25.6-25.6A25.59,25.59,0,0,1,270.52,160.13Z"/><path d="M292.32,232.18a25.61,25.61,0,1,1-25.61-25.6A25.6,25.6,0,0,1,292.32,232.18Z"/><path d="M246.2,226.8a25.6,25.6,0,1,1-25.61-25.6A25.6,25.6,0,0,1,246.2,226.8Z"/><path d="M246.14,199.15a25.6,25.6,0,1,1-25.6-25.61A25.59,25.59,0,0,1,246.14,199.15Z"/><path d="M798.52,196.12a21.33,21.33,0,1,1-21.33-21.34A21.32,21.32,0,0,1,798.52,196.12Z"/><path d="M785.2,173.32A21.34,21.34,0,1,1,763.87,152,21.33,21.33,0,0,1,785.2,173.32Z"/><path d="M470,377.22a21.34,21.34,0,1,1-21.34-21.34A21.33,21.33,0,0,1,470,377.22Z"/><path d="M374.14,439.43a21.34,21.34,0,1,1-21.33-21.33A21.33,21.33,0,0,1,374.14,439.43Z"/><path d="M418,440.54a21.34,21.34,0,1,1-21.33-21.34A21.33,21.33,0,0,1,418,440.54Z"/><path d="M360.82,416.64a21.34,21.34,0,1,1-21.34-21.34A21.33,21.33,0,0,1,360.82,416.64Z"/><path d="M447.93,429.29A21.34,21.34,0,1,1,426.59,408,21.33,21.33,0,0,1,447.93,429.29Z"/><path d="M517.54,375.48a21.33,21.33,0,1,1-21.33-21.34A21.32,21.32,0,0,1,517.54,375.48Z"/><path d="M422.07,401.45a21.34,21.34,0,1,1-21.34-21.34A21.33,21.33,0,0,1,422.07,401.45Z"/><path d="M596.42,67.24A19.2,19.2,0,1,1,577.22,48,19.19,19.19,0,0,1,596.42,67.24Z"/><path d="M521.68,19.2A19.2,19.2,0,1,1,502.48,0,19.19,19.19,0,0,1,521.68,19.2Z"/><path d="M538.81,40.58a19.2,19.2,0,1,1-19.2-19.2A19.2,19.2,0,0,1,538.81,40.58Z"/><path d="M667.43,72.15A19.2,19.2,0,1,1,648.23,53,19.2,19.2,0,0,1,667.43,72.15Z"/><path d="M625.06,21.21A19.2,19.2,0,1,1,605.86,2,19.19,19.19,0,0,1,625.06,21.21Z"/><path d="M619.84,121.11a19.21,19.21,0,1,1-19.21-19.2A19.2,19.2,0,0,1,619.84,121.11Z"/><path d="M615.53,27.56a19.2,19.2,0,1,1-19.2-19.2A19.19,19.19,0,0,1,615.53,27.56Z"/></g></g></svg>