<svg xmlns="http://www.w3.org/2000/svg" viewBox="0 0 1454.68 501.55"><defs><style>.cls-1{fill:#faaf40;}.cls-2{fill:#fff;}</style></defs><title>likeAsset 11@72x</title><g id="Layer_2" data-name="Layer 2"><g id="Layer_1-2" data-name="Layer 1"><path class="cls-1" d="M121,501.55c-11.55,0-21.84-7.56-26.86-19.72-4.52-11-7-30.64,6.6-61.94q3.76-8.64,8.84-17.69a511.68,511.68,0,0,0-43.77,39.51,4.38,4.38,0,0,1-6.18-6.21,510.72,510.72,0,0,0,39.27-43.92A173.79,173.79,0,0,1,68.72,405.3c-37,12.4-54.59.11-60.42-5.75-11.07-11.12-11.07-27.88,0-39,5.83-5.86,23.39-18.14,60.42-5.74A173.4,173.4,0,0,1,99,368.59a515,515,0,0,0-39.4-44,4.38,4.38,0,0,1,6.18-6.21,512,512,0,0,0,43.71,39.46,175.36,175.36,0,0,1-13.65-30.28c-12.34-37.2-.11-54.85,5.72-60.71,11.06-11.11,27.75-11.11,38.82,0,5.83,5.86,18.06,23.51,5.71,60.71a175.27,175.27,0,0,1-13.64,30.28,513.56,513.56,0,0,0,43.71-39.46,4.38,4.38,0,0,1,6.18,6.21,515,515,0,0,0-39.4,44,173.32,173.32,0,0,1,30.26-13.78c37-12.41,54.59-.12,60.42,5.74,11.07,11.12,11.07,27.88,0,39-5.83,5.86-23.39,18.15-60.42,5.75a173.72,173.72,0,0,1-30.13-13.72,510.72,510.72,0,0,0,39.27,43.92,4.41,4.41,0,0,1,0,6.21,4.35,4.35,0,0,1-6.18,0,513.24,513.24,0,0,0-43.78-39.51q5.07,9,8.84,17.69c13.66,31.3,11.13,51,6.6,61.94C142.79,494,132.5,501.55,121,501.55ZM121,400a198.52,198.52,0,0,0-12.25,23.42c-9.69,22.21-12,41.76-6.53,55,3.69,9,10.71,14.31,18.78,14.31s15.08-5.35,18.77-14.31c5.48-13.28,3.16-32.83-6.52-55A200,200,0,0,0,121,400Zm20-19.95C153.29,387.63,165,393.31,176,397c32.4,10.86,46.79,1.09,51.47-3.62,7.67-7.7,7.67-18.88,0-26.58-4.68-4.7-19.07-14.48-51.47-3.62C165,366.8,153.29,372.48,140.91,380.05ZM39.36,358.21c-14.29,0-21.75,5.41-24.88,8.55-7.66,7.7-7.66,18.88,0,26.58C19.16,398,33.55,407.82,66,397c10.92-3.65,22.67-9.33,35.05-16.91C88.63,372.48,76.88,366.8,66,363.14,55.21,359.54,46.45,358.21,39.36,358.21Zm73.53,29.56-1.15,1.54,1.59-1.19-.06-.1Zm15.69.35,1.59,1.19L129,387.77l-.37.25Zm-9.18-6.63,1.56,1.09,1.56-1.09,1-1.41-1.06-1.52-1.48-1-1.49,1-1,1.52Zm-7.73-10.75,1.2,1.61.25-.17.16-.23Zm17.12,1.44.26.17c.39-.54.79-1.07,1.2-1.61L128.64,372ZM121,267.3a18.61,18.61,0,0,0-13.23,5.77c-4.68,4.71-14.41,19.17-3.61,51.72,3.64,11,9.3,22.78,16.84,35.22,7.54-12.44,13.19-24.24,16.83-35.22,10.8-32.55,1.08-47-3.61-51.72A18.61,18.61,0,0,0,121,267.3Z"/><path class="cls-1" d="M1365.05,179.27a5.17,5.17,0,0,1-2.58-.69c-1.87-1.08-2.38-2.29-2.52-4.49h0v-1.83c0-.35,0-.71,0-1.1V139.6c-18.29,17.58-36.91,25.83-51.26,22.32a21,21,0,0,1-15.87-15.87c-3.51-14.34,4.75-33,22.33-51.26h-34.5v-.05c-2.19-.14-3.41-.66-4.49-2.53a5.15,5.15,0,0,1,0-5.15c1.08-1.87,2.3-2.38,4.49-2.52v-.06h34.5c-17.58-18.29-25.84-36.92-22.33-51.26a21,21,0,0,1,15.87-15.87c14.34-3.51,33,4.75,51.26,22.32V8.11c0-.38,0-.75,0-1.1V5.18h0c.14-2.2.65-3.41,2.52-4.49a5.15,5.15,0,0,1,5.15,0c1.88,1.08,2.39,2.29,2.53,4.49h0V39.67c18.29-17.57,36.92-25.83,51.26-22.32a21,21,0,0,1,15.87,15.87c3.51,14.34-4.74,33-22.32,51.26h34.49v.06c2.2.14,3.41.65,4.49,2.52a5.15,5.15,0,0,1,0,5.15c-1.08,1.87-2.29,2.39-4.49,2.53v.05H1415c17.58,18.29,25.83,36.92,22.32,51.26a21,21,0,0,1-15.87,15.87c-14.34,3.51-33-4.74-51.26-22.32v34.49h0c-.14,2.2-.65,3.41-2.53,4.49A5.11,5.11,0,0,1,1365.05,179.27Zm-31.94-89.62a5.11,5.11,0,0,1-1.76,3.86c-24.82,21.76-30.91,40.58-28.58,50.09a10.63,10.63,0,0,0,8.31,8.32c9.51,2.33,28.34-3.77,50.09-28.59a5.15,5.15,0,0,1,3.88-1.75h0a5.13,5.13,0,0,1,3.87,1.75c21.76,24.82,40.59,30.92,50.09,28.59a10.64,10.64,0,0,0,8.32-8.32c2.32-9.51-3.77-28.33-28.59-50.09a5.14,5.14,0,0,1-1.75-3.86h0a5.16,5.16,0,0,1,1.75-3.87c24.82-21.75,30.91-40.58,28.59-50.09a10.62,10.62,0,0,0-8.32-8.31c-9.51-2.34-28.33,3.76-50.09,28.58a5.14,5.14,0,0,1-3.87,1.76h0a5.16,5.16,0,0,1-3.88-1.76c-21.75-24.82-40.58-30.91-50.09-28.58a10.61,10.61,0,0,0-8.31,8.31c-2.33,9.51,3.76,28.34,28.58,50.09a5.14,5.14,0,0,1,1.76,3.87h0Z"/><path class="cls-2" d="M1187.42,485.39c8.78-51.9,15-58.16,66.95-66.95a3.87,3.87,0,0,0,0-7.63c-51.91-8.79-58.17-15.05-66.95-66.95a3.87,3.87,0,0,0-7.64,0c-8.79,51.9-15,58.16-67,66.95a3.87,3.87,0,0,0,0,7.63c51.91,8.79,58.16,15.05,67,66.95a3.87,3.87,0,0,0,7.64,0ZM1168,430.23c-7.65-7.66-18.18-12-34-15.6,15.83-3.61,26.36-7.95,34-15.61s12-18.18,15.61-34c3.6,15.83,8,26.36,15.6,34s18.18,12,34,15.61c-15.83,3.6-26.36,7.94-34,15.6s-12,18.18-15.6,34C1180,448.41,1175.65,437.88,1168,430.23Z"/><path class="cls-2" d="M1257.15,339.21c5.33-31.3,9.12-35.07,40.59-40.37a2.33,2.33,0,0,0,0-4.6c-31.47-5.3-35.26-9.08-40.59-40.38a2.35,2.35,0,0,0-4.63,0c-5.32,31.3-9.12,35.08-40.58,40.38a2.33,2.33,0,0,0,0,4.6c31.46,5.3,35.26,9.07,40.58,40.37a2.35,2.35,0,0,0,4.63,0ZM1245.38,306c-4.64-4.62-11-7.24-20.62-9.41,9.6-2.17,16-4.8,20.62-9.41s7.27-11,9.46-20.51c2.18,9.54,4.82,15.89,9.46,20.51s11,7.24,20.61,9.41c-9.59,2.17-16,4.79-20.61,9.41s-7.28,11-9.46,20.51C1252.65,316.91,1250,310.56,1245.38,306Z"/><path class="cls-2" d="M375.52,122.1c-58.35-9.88-65.38-16.91-75.25-75.25a4.35,4.35,0,0,0-8.58,0c-9.88,58.34-16.91,65.37-75.25,75.25a4.35,4.35,0,0,0,0,8.58c58.34,9.87,65.37,16.91,75.25,75.25a4.35,4.35,0,0,0,8.58,0c9.87-58.34,16.9-65.38,75.25-75.25a4.35,4.35,0,0,0,0-8.58Zm-62,21.82c-8.6,8.6-13.49,20.44-17.53,38.23-4.05-17.79-8.94-29.63-17.54-38.23S258,130.43,240.21,126.39c17.79-4,29.63-8.94,38.23-17.54S291.93,88.41,296,70.62c4,17.79,8.93,29.63,17.53,38.23s20.44,13.49,38.23,17.54C334,130.43,322.11,135.32,313.51,143.92Z"/></g></g></svg>