<svg xmlns="http://www.w3.org/2000/svg" viewBox="0 0 1392.14 582.85"><defs><style>.cls-1{fill:#faaf40;}.cls-2{fill:#fff;}</style></defs><title>likeAsset 12@72x</title><g id="Layer_2" data-name="Layer 2"><g id="Layer_1-2" data-name="Layer 1"><path class="cls-1" d="M121,493.33c-11.55,0-21.84-7.56-26.86-19.73-4.52-11-7-30.63,6.6-61.93q3.76-8.64,8.84-17.69a510,510,0,0,0-43.77,39.51,4.38,4.38,0,0,1-6.18-6.21,510.72,510.72,0,0,0,39.27-43.92,174.55,174.55,0,0,1-30.14,13.72c-37,12.4-54.59.11-60.42-5.75-11.07-11.12-11.07-27.88,0-39,5.83-5.86,23.39-18.15,60.42-5.75A174.22,174.22,0,0,1,99,360.37a515,515,0,0,0-39.4-44,4.38,4.38,0,1,1,6.18-6.21,510.15,510.15,0,0,0,43.71,39.45,174.94,174.94,0,0,1-13.65-30.27c-12.34-37.21-.11-54.85,5.72-60.71,11.06-11.12,27.75-11.12,38.82,0,5.83,5.86,18.06,23.5,5.71,60.71a174.86,174.86,0,0,1-13.64,30.27,511.66,511.66,0,0,0,43.71-39.45,4.35,4.35,0,0,1,6.18,0,4.41,4.41,0,0,1,0,6.21,515,515,0,0,0-39.4,44,174.15,174.15,0,0,1,30.26-13.79c37-12.4,54.59-.11,60.42,5.75,11.07,11.12,11.07,27.88,0,39-5.83,5.86-23.39,18.15-60.42,5.75a174.47,174.47,0,0,1-30.13-13.72,510.72,510.72,0,0,0,39.27,43.92,4.38,4.38,0,0,1-6.18,6.21A511.55,511.55,0,0,0,132.37,394q5.07,9,8.84,17.69c13.66,31.3,11.13,51,6.6,61.93C142.79,485.77,132.5,493.33,121,493.33Zm0-101.56a199.4,199.4,0,0,0-12.25,23.43c-9.69,22.2-12,41.75-6.53,55,3.69,9,10.71,14.31,18.78,14.31s15.08-5.35,18.77-14.31c5.48-13.29,3.16-32.84-6.52-55A200.93,200.93,0,0,0,121,391.77Zm20-19.94C153.29,379.4,165,385.08,176,388.74c32.4,10.86,46.79,1.08,51.47-3.62,7.67-7.7,7.67-18.88,0-26.58-4.68-4.71-19.07-14.48-51.47-3.62C165,358.58,153.29,364.26,140.91,371.83ZM39.36,350c-14.29,0-21.75,5.4-24.88,8.55-7.66,7.7-7.66,18.88,0,26.58,4.68,4.7,19.07,14.48,51.48,3.62,10.92-3.66,22.67-9.34,35.05-16.91C88.63,364.26,76.88,358.58,66,354.92,55.21,351.32,46.45,350,39.36,350Zm73.53,29.56-1.15,1.54,1.59-1.19-.06-.1Zm15.69.35,1.59,1.19L129,379.55l-.37.25Zm-9.18-6.63,1.56,1.09,1.56-1.09,1-1.41-1.06-1.52-1.48-1-1.49,1-1,1.52Zm-7.73-10.75,1.2,1.61.25-.17.16-.23ZM128.79,364l.26.17c.39-.54.79-1.08,1.2-1.61l-1.61,1.21ZM121,259.08a18.61,18.61,0,0,0-13.23,5.77c-4.68,4.71-14.41,19.16-3.61,51.72,3.64,11,9.3,22.78,16.84,35.22,7.54-12.44,13.19-24.24,16.83-35.22,10.8-32.56,1.08-47-3.61-51.72A18.61,18.61,0,0,0,121,259.08Z"/><path class="cls-1" d="M1196.23,235.37a5.16,5.16,0,0,1-2.57-.69c-1.87-1.08-2.39-2.3-2.52-4.49h-.06v-34.5c-18.29,17.58-36.91,25.84-51.26,22.33A21,21,0,0,1,1124,202.15c-3.51-14.35,4.74-33,22.32-51.26h-34.49v0c-2.2-.14-3.41-.65-4.49-2.52a5.15,5.15,0,0,1,0-5.15c1.08-1.88,2.29-2.39,4.49-2.53v0h34.49c-17.58-18.29-25.83-36.92-22.32-51.26a21,21,0,0,1,15.87-15.88c14.34-3.5,33,4.75,51.26,22.33V61.28h.06c.13-2.2.65-3.41,2.52-4.49a5.15,5.15,0,0,1,5.15,0c1.87,1.08,2.38,2.29,2.52,4.49h.06V95.77c18.29-17.58,36.92-25.83,51.26-22.33a21,21,0,0,1,15.87,15.88c3.51,14.34-4.75,33-22.32,51.26h34.49v0c2.2.14,3.41.65,4.49,2.53a5.15,5.15,0,0,1,0,5.15c-1.08,1.87-2.29,2.38-4.49,2.52v0H1246.2c17.57,18.29,25.83,36.91,22.32,51.26A21,21,0,0,1,1252.65,218c-14.34,3.51-33-4.75-51.26-22.33v34.5h-.06c-.14,2.19-.65,3.41-2.52,4.49A5.17,5.17,0,0,1,1196.23,235.37Zm-31.93-89.63a5.19,5.19,0,0,1-1.76,3.87c-24.82,21.75-30.91,40.58-28.58,50.09a10.61,10.61,0,0,0,8.31,8.31c9.51,2.34,28.33-3.76,50.09-28.58a5.15,5.15,0,0,1,3.87-1.76h0a5.15,5.15,0,0,1,3.87,1.76c21.76,24.82,40.59,30.91,50.09,28.58a10.61,10.61,0,0,0,8.31-8.31c2.33-9.51-3.76-28.34-28.58-50.09a5.19,5.19,0,0,1-1.76-3.87h0a5.15,5.15,0,0,1,1.76-3.86c24.82-21.76,30.91-40.58,28.58-50.09a10.62,10.62,0,0,0-8.31-8.32c-9.51-2.33-28.34,3.77-50.09,28.59a5.18,5.18,0,0,1-3.87,1.75h0a5.14,5.14,0,0,1-3.87-1.75c-21.76-24.82-40.58-30.92-50.09-28.59a10.62,10.62,0,0,0-8.31,8.32c-2.33,9.51,3.76,28.33,28.58,50.09a5.15,5.15,0,0,1,1.76,3.86h0Z"/><path class="cls-2" d="M1387.85,479.34c-69-11.68-77.37-20-89-89a5.15,5.15,0,0,0-10.16,0c-11.69,69-20,77.37-89.05,89a5.15,5.15,0,0,0,0,10.16c69,11.69,77.36,20,89.05,89.06a5.15,5.15,0,0,0,10.16,0c11.68-69,20-77.37,89-89.06a5.15,5.15,0,0,0,0-10.16Zm-73.38,25.84c-10.18,10.17-16,24.18-20.75,45.24-4.79-21.06-10.58-35.07-20.75-45.24s-24.19-16-45.25-20.76c21.06-4.79,35.07-10.57,45.25-20.75s16-24.19,20.75-45.24c4.79,21.05,10.57,35.06,20.75,45.24s24.19,16,45.24,20.75C1338.66,489.21,1324.65,495,1314.47,505.18Z"/><path class="cls-2" d="M574.77,112.28c-51.91-8.79-58.16-15-66.95-66.95a3.87,3.87,0,0,0-7.63,0c-8.79,51.91-15.05,58.16-67,67a3.88,3.88,0,0,0,0,7.64c51.91,8.78,58.17,15,67,67a3.87,3.87,0,0,0,7.63,0c8.79-51.91,15-58.17,66.95-66.95a3.87,3.87,0,0,0,0-7.64ZM519.61,131.7c-7.66,7.65-12,18.18-15.61,34-3.6-15.83-7.95-26.36-15.6-34s-18.18-12-34-15.6c15.83-3.6,26.36-7.95,34-15.6s12-18.19,15.6-34c3.61,15.83,7.95,26.36,15.61,34s18.18,12,34,15.6C537.79,119.7,527.26,124.05,519.61,131.7Z"/><path class="cls-2" d="M428.59,42.54c-31.3-5.32-35.07-9.12-40.37-40.58a2.34,2.34,0,0,0-4.61,0c-5.29,31.46-9.07,35.26-40.37,40.58a2.35,2.35,0,0,0,0,4.63c31.3,5.33,35.08,9.12,40.37,40.59a2.34,2.34,0,0,0,4.61,0c5.3-31.47,9.07-35.26,40.37-40.59a2.35,2.35,0,0,0,0-4.63ZM395.32,54.31c-4.61,4.64-7.23,11-9.4,20.62-2.18-9.59-4.8-16-9.41-20.62S365.54,47,356,44.86c9.54-2.19,15.89-4.82,20.51-9.46s7.23-11,9.41-20.62c2.17,9.6,4.79,16,9.4,20.62s11,7.27,20.52,9.46C406.29,47,399.94,49.68,395.32,54.31Z"/></g></g></svg>