<svg xmlns="http://www.w3.org/2000/svg" viewBox="0 0 665.6 69.67"><title>likeAsset 7@72x</title><g id="Layer_2" data-name="Layer 2"><g id="Layer_1-2" data-name="Layer 1"><path d="M665.53,59.78a7.6,7.6,0,0,0-3-5.11,7.91,7.91,0,0,0-5.94-1.27l-1.79-.08a31.23,31.23,0,0,1-5.94-.6l-.16-.1A8.45,8.45,0,0,0,643,51a8,8,0,0,0-3.94,1.6,7,7,0,0,0-1.32.37,3.52,3.52,0,0,0-.39.16,7.55,7.55,0,0,0-2.22-.11,12,12,0,0,1-2.61,0,7.05,7.05,0,0,0-2.75.33h-.47a7.14,7.14,0,0,0-2.44-.34c-.69,0-1.48.08-2.32.15a20.62,20.62,0,0,1-4.18.08,6.71,6.71,0,0,0-3.92.12H616c-.46,0-1.07,0-1.56,0A10.12,10.12,0,0,0,611,51a13.27,13.27,0,0,0-4.74-.71c-.31,0-.73,0-.87,0a14.63,14.63,0,0,1-1.42-.4,18.21,18.21,0,0,0-3.49-.85,12.94,12.94,0,0,0-2.54,0,7.71,7.71,0,0,0-1.25-.52,18.72,18.72,0,0,0-3.76-.68l-.59-.06a10.72,10.72,0,0,0-2.94-2.41,8.1,8.1,0,0,0-2.91-.92,7.14,7.14,0,0,0-2.39-1A36.7,36.7,0,0,0,573,43.36a9.73,9.73,0,0,0-2.73.77h0l-.75-.05a6.8,6.8,0,0,0-.89-.89c-4.39-3.66-9.43-1.11-11.09-.28l-.38.2a9.85,9.85,0,0,0-3,.66,6.52,6.52,0,0,0-1.87,1.13l0,0a7.4,7.4,0,0,0-2,.53,6.12,6.12,0,0,0-1.63,1,9.74,9.74,0,0,0-1.86.49,7.08,7.08,0,0,0-.91.4,7.53,7.53,0,0,0-1.7.4,7.25,7.25,0,0,0-.88.39,7.49,7.49,0,0,0-1.18.12,6.67,6.67,0,0,0-1.19.31l-.53,0a8.35,8.35,0,0,0-.53-1.78,11.55,11.55,0,0,0-6.71-5.67,15.42,15.42,0,0,0-5.83-.35,13.2,13.2,0,0,1-1.5.08,8.28,8.28,0,0,1-1-.14,14.85,14.85,0,0,0-3.14-.27,20.54,20.54,0,0,0-3.59.53l-.69.15a7.31,7.31,0,0,0-4.55.15,8.75,8.75,0,0,0-1.26,0,7.26,7.26,0,0,0-2.11.47h-1a13.58,13.58,0,0,0-4.63.53l-.08,0a9.72,9.72,0,0,0-2.89-.59,11.28,11.28,0,0,0-3.89.68l-.38.12a9.63,9.63,0,0,0-2.9.17,8.27,8.27,0,0,0-2.58,1.12c-.68.15-1.72.27-2.53.36a29.31,29.31,0,0,0-3.64.55l-.68.16a14,14,0,0,0-3.83,1.26,8.48,8.48,0,0,1-.93.41,9,9,0,0,0-2.75.2,8.21,8.21,0,0,0-2.38,1l-1.13.15a26.36,26.36,0,0,0-2.81.44,24.53,24.53,0,0,0-2.72.8c-.52.17-1,.34-1.35.41a7.23,7.23,0,0,1-.9.08c0-.07,0-.15.05-.23a6,6,0,0,0,.29-1.43c.5-5.64-2.54-10-8.12-11.66a13.62,13.62,0,0,0-5.35-.3l-.21,0-.33,0a22.18,22.18,0,0,0-5.24.08,7.94,7.94,0,0,0-2.09,0,21.63,21.63,0,0,0-4,.53c-.65.13-1.27.25-1.78.31l-.38,0a14.88,14.88,0,0,0-2.38,0,13.77,13.77,0,0,0-3.42.9,7.38,7.38,0,0,0-1.93-.11,11.69,11.69,0,0,0-3.23.78h0a10.26,10.26,0,0,0-2,0c-1.88.23-3.84.56-5.73.89-1.68.28-3.26.55-4.5.7l-.37-.13a11.13,11.13,0,0,0-3.89-.7,7.91,7.91,0,0,0-3.65,1c-.63,0-1.52-.06-2.22-.11a30.83,30.83,0,0,0-5.39-.06,18.68,18.68,0,0,0-3.08.58,8.38,8.38,0,0,1-1,.22,44.08,44.08,0,0,1-4.91,0c-1.1,0-2.2,0-3.29,0S385,40.94,384,41a31.59,31.59,0,0,1-3.42.07l-.31-.2a12.7,12.7,0,0,0-3.85-1.81,18.18,18.18,0,0,0-5.73-.24h-.16a7.44,7.44,0,0,0-2.95-.34,12.51,12.51,0,0,0-1.86.29,7.61,7.61,0,0,0-2.86-1.92c-3-1.14-5.8-.21-7.65.41a13.14,13.14,0,0,1-1.68.49c-.7.13-1.61.23-2.49.31A19.33,19.33,0,0,0,345,39.32a6.64,6.64,0,0,0-1.2-1.35,6.51,6.51,0,0,0-3.3-1.48,22.36,22.36,0,0,0-8.88.53,7.52,7.52,0,0,0-1.89.76,6.23,6.23,0,0,0-1.59.54,10.42,10.42,0,0,0-2.29.39,17.12,17.12,0,0,0-3,1.22c-.23.11-.52.26-.71.34a8.57,8.57,0,0,0-4.07,1c-3,1.66-8.64,1.38-12,1.22a7.8,7.8,0,0,0-2.77.39c-.87,0-1.84-.09-2.65-.17-.16-.09-.34-.19-.53-.28a12,12,0,0,0,1-2.78,6.78,6.78,0,0,0,0-2.44,10.32,10.32,0,0,0,.34-1.74,8,8,0,0,0-1-4.9A6.93,6.93,0,0,0,298,26.21c-2.82-2.37-6.23-2.12-8.26-2a7.31,7.31,0,0,1-1,.06,5.67,5.67,0,0,1-.57-.1,13.41,13.41,0,0,0-3.44-.3,10.7,10.7,0,0,0-2.67.52,7.32,7.32,0,0,0-4.75.64,7.43,7.43,0,0,0-2.33.55,6.49,6.49,0,0,0-1.76,1.11l-.1.05a8.58,8.58,0,0,0-.89.59,10.68,10.68,0,0,0-1.61-4.74,10.18,10.18,0,0,0-3.8-3.51,15.62,15.62,0,0,0-7.27-1.78h-.11a6.75,6.75,0,0,0-2.48-.31,21.54,21.54,0,0,0-6.05,1.4c-.45.15-.9.31-1.34.44a3.55,3.55,0,0,1-.47.08c-.48.08-1,.17-1.39.28l-.32.05a11.61,11.61,0,0,0-2.31.53,6.25,6.25,0,0,0-1.65.86,7.89,7.89,0,0,0-1.29.44,6.57,6.57,0,0,0-1.41.44,6.45,6.45,0,0,0-1.2.69l-.54.19a22.49,22.49,0,0,0-3.61,1.44l-.5.22a15.88,15.88,0,0,0-2.2,1.27,6.11,6.11,0,0,0-1-1.06,7.34,7.34,0,0,0-.53-1A6.52,6.52,0,0,0,228.62,21a7.19,7.19,0,0,0-7.74.76,6.71,6.71,0,0,0-1.06.43,8.06,8.06,0,0,0-.89.51,7.78,7.78,0,0,0-2.63,1l0,0a14,14,0,0,0-3.9-3.28h0a6.92,6.92,0,0,0-3.68-.61l-.51-.25a12.7,12.7,0,0,0-8.29-.37c-.44.1-.86.19-1.18.23h-.22a10.54,10.54,0,0,0-3.15.17,7.7,7.7,0,0,0-2.06.81,6.42,6.42,0,0,0-1.81.7,21.4,21.4,0,0,0-2.58.54,9.24,9.24,0,0,0-4.06-6.32,11,11,0,0,0-9.62-.81,7.15,7.15,0,0,0-1.64.79l-.48,0a15.18,15.18,0,0,0-4.29.89,6.24,6.24,0,0,0-1.29.68,7.25,7.25,0,0,0-1.58.47,7.59,7.59,0,0,0-2,.54,6.3,6.3,0,0,0-1.9,1.23l-.79.24-1.33.41a6.88,6.88,0,0,0-2.32.51,6.62,6.62,0,0,0-1.62,1l-.28.09a9.16,9.16,0,0,0-.49-1.38,11.09,11.09,0,0,0-2.39-3.31c-.81-.74-5.8-4.13-10.15-2.52a9.14,9.14,0,0,0-4.56,1.76,2.82,2.82,0,0,1-.31.21l-.81.44-.48.26-.59.06a6.77,6.77,0,0,0-.42-.92,6.5,6.5,0,0,0-7-3.3,33.77,33.77,0,0,0-10.1,3.73,2.87,2.87,0,0,1-.36.21,7.68,7.68,0,0,0-1.53-1.36l-.18-.11a8,8,0,0,0,.64-4.41,6.57,6.57,0,0,0-1.86-3.6,6.8,6.8,0,0,0-2.38-2.78,9.16,9.16,0,0,0-8.68-.65,7.08,7.08,0,0,0-2.28.06A6.08,6.08,0,0,0,101,4,11,11,0,0,0,94.37.05a9.55,9.55,0,0,0-6.56,2,7.94,7.94,0,0,0-1.46.4,8.07,8.07,0,0,0-1,.51A7.47,7.47,0,0,0,81,.5,8.24,8.24,0,0,0,74.1,2.87a6.81,6.81,0,0,0-3-1.51A7.45,7.45,0,0,0,64.68,3c-.24.07-.49.16-.74.26a7.48,7.48,0,0,0-3.44-.84h0a8.23,8.23,0,0,0-5.89,2.73,7.2,7.2,0,0,0-1,.66l-.37.29c-.73.57-1.45,1.13-1.93,1.54-.3.26-.57.53-.81.78a7.13,7.13,0,0,0-1.11.74c-.37.31-.76.66-1.16,1a6.85,6.85,0,0,0-3.32.19,7.75,7.75,0,0,0-4.09,3.13,1.11,1.11,0,0,1-.17.23,5.72,5.72,0,0,1-.61.51A13.18,13.18,0,0,0,38.14,16c-.2.21-.46.45-.7.68s-.71.65-1,1c-.2.1-.42.23-.67.38A6.49,6.49,0,0,0,34,19.64a9.47,9.47,0,0,0-1.39,1A16.66,16.66,0,0,0,31,22.26a7.2,7.2,0,0,0-2.22,1.49A13.08,13.08,0,0,0,27,26.16l-.18.29c-.23.2-.62.49-1,.74a19.63,19.63,0,0,0-2.18,1.75l-.32.33-.36.31a7.33,7.33,0,0,0-.95,1,7.45,7.45,0,0,0-2,1.64,10.42,10.42,0,0,0-1.23,1.82c-.17.11-.35.22-.53.35a6.94,6.94,0,0,0-.8.68,6.37,6.37,0,0,0-2.09,2.08c-.09.09-.19.19-.28.3l-.21.17a10.81,10.81,0,0,0-1.4,1.3,6.14,6.14,0,0,0-2.1,1.77,6.38,6.38,0,0,0-.56.31,7.45,7.45,0,0,0-2.09,2c-.08.1-.17.2-.25.31a5.84,5.84,0,0,0-1.08,1.19L6,45.56a7.36,7.36,0,0,0-1.27,1.32l-.07,0A9.83,9.83,0,0,0,.48,51.63,6.93,6.93,0,0,0,.11,55a7.47,7.47,0,0,0,.6,4.46,6.48,6.48,0,0,0,2.91,3A7.56,7.56,0,0,0,11.3,62,7,7,0,0,0,13,61.15a7.72,7.72,0,0,0,2-2.22c.27-.23.62-.5.94-.75a16.67,16.67,0,0,0,2.89-2.6l.14-.17a10.61,10.61,0,0,0,3.46-3.59,8.65,8.65,0,0,0,2.34-1.9,6.09,6.09,0,0,0,1.44-1.34c.13-.15.54-.51.82-.75s.51-.44.77-.68A6.7,6.7,0,0,0,29.44,46a19.31,19.31,0,0,0,2.47-3l.37-.52a12.33,12.33,0,0,0,1.39-1,24,24,0,0,0,1.83-1.66l.35-.33.23-.23A8,8,0,0,0,41,37.45h0l.14-.07a9.9,9.9,0,0,0,1.64-1,8.47,8.47,0,0,0,4.82-.75,7,7,0,0,0,7.26,0,6.85,6.85,0,0,0,2-.74,9.55,9.55,0,0,0,2.57-2.21c.15-.16.3-.35.43-.47s.27-.19.47-.32a6.5,6.5,0,0,0,3.26.56h.07a9.71,9.71,0,0,0,3.48-.15,6.12,6.12,0,0,0,1.86-.76A6.7,6.7,0,0,0,70.47,31a8.21,8.21,0,0,0,1.76-1.11,7.72,7.72,0,0,0,2.42,1.33c4.38,1.47,8.7-1.13,11.56-2.86l.47-.28.45-.22a8.41,8.41,0,0,0-.23,2.38c0,.05.47,5.06,3.5,7.35h0c4.28,3.16,9.79.67,12.73-1.12a6.43,6.43,0,0,0,1.09.76,7.45,7.45,0,0,0,8-.39,7.06,7.06,0,0,0,2.93-1.35l.41-.1a17.67,17.67,0,0,0,2.12-.76,7,7,0,0,0,1.61-1l.12,0a7.37,7.37,0,0,0,3.17,3.49,6.89,6.89,0,0,0,3.91.87,6.92,6.92,0,0,0,3.07,0,7.91,7.91,0,0,0,3.19-1.66,8.37,8.37,0,0,0,1.38-.6l.06,0a7.28,7.28,0,0,0,1.78-.53,7.1,7.1,0,0,0,2.22-1.6l.15-.1a7.65,7.65,0,0,0,2.59-1.36c.32-.08.69-.19,1.09-.33a6.48,6.48,0,0,0,.92,1.54,5.21,5.21,0,0,0,.3.56,8.78,8.78,0,0,0,8.39,4.35,7.59,7.59,0,0,0,2.93.31,14.13,14.13,0,0,0,5.29-1.61l0,0a6.45,6.45,0,0,0,3.57-1.51v0a4.76,4.76,0,0,0,.64-.63l.09-.09c.8-.33,1.5-.68,2.08-1,.36-.18.7-.36,1.06-.51a13.12,13.12,0,0,1,1.61-.43,18.19,18.19,0,0,0,3.37-1,10.39,10.39,0,0,0,2.27,4.87A6.89,6.89,0,0,0,177.16,39l.07,0,0,0c4,2,10.95-.07,11-.1l.08,0a6.58,6.58,0,0,0,2.29-.69,32.57,32.57,0,0,0,3.86-1c.55-.18,1-.33,1.42-.43l.4,0a11.83,11.83,0,0,0,2.82-.45l.4.42a7.59,7.59,0,0,0,3.46,2,10.16,10.16,0,0,0,.44,2.31l0,.1a7.53,7.53,0,0,0,3.93,4.87,7.44,7.44,0,0,0,6.15-.08l.18-.07A9.6,9.6,0,0,0,217,43.83a5.51,5.51,0,0,0,.5-.3,6.9,6.9,0,0,0,1.3,1.67c4.14,4,9.36,1.13,11.07.21a14.78,14.78,0,0,0,2.69-2l.14-.12a8.41,8.41,0,0,0,1.72-.55,7.18,7.18,0,0,0,.83-.45,7.27,7.27,0,0,0,1.81-.85,7.66,7.66,0,0,0,2-2.07,7.35,7.35,0,0,0,1.47-.77,6.49,6.49,0,0,0,1.33-.57,6.25,6.25,0,0,0,2-.51,8.37,8.37,0,0,0,2.8-2l.18,0a29.65,29.65,0,0,0,4.5-.93,7.56,7.56,0,0,0,2.17-1.09l.52-.15a3.19,3.19,0,0,1,1-.12h0l0,.19c-1.24,5.53.92,8.8,2.32,10.26,2.42,2.52,6.11,3.55,10.13,2.82a6.29,6.29,0,0,0,1.19-.33,7.12,7.12,0,0,0,2.43-.88,6.73,6.73,0,0,0,1.08-.8,10.21,10.21,0,0,0,4.12-.89,7.58,7.58,0,0,0,2.84-2.28,8.08,8.08,0,0,0,4.92-1,5.82,5.82,0,0,0,.87.18l.26,0a10.6,10.6,0,0,0-.89,3.88c0,1.08,0,6.68,3.37,10a6.42,6.42,0,0,0,4,1.87,10,10,0,0,0,2.86,1.12,7.25,7.25,0,0,0,2.84,0,10.09,10.09,0,0,0,3.05.55,10,10,0,0,0,1.15-.09,8.67,8.67,0,0,0,2.08.46,7.13,7.13,0,0,0,2.07-.1,7.51,7.51,0,0,0,2,.11,10.7,10.7,0,0,0,1.16-.17,7.82,7.82,0,0,0,2.4.16,7.26,7.26,0,0,0,2-.46,7,7,0,0,0,1.41.08,10,10,0,0,0,3.65-.93l.44-.18a17.12,17.12,0,0,1,2.24-.46c1-.16,2-.34,3.22-.65a7.3,7.3,0,0,0,1.53-.58,7.76,7.76,0,0,0,1.81-.35,6.76,6.76,0,0,0,1.66-.82,10.48,10.48,0,0,0,1.83-.23,7.56,7.56,0,0,0,1.71-.62H333a12.16,12.16,0,0,0,2.1,2.3l.29.2a11.7,11.7,0,0,0,6,1.5,7.37,7.37,0,0,0,2.81-.76,8.17,8.17,0,0,0,2-.35,10,10,0,0,0,2.36-1.13h.3a15.6,15.6,0,0,0,3.23-.34,7,7,0,0,0,2.08-.85l.51-.06A6.86,6.86,0,0,0,356,55.13c2.82,2.43,6.12,1.77,8.1,1.37.38-.07,1-.19,1.18-.2a8.53,8.53,0,0,1,1,0,16.94,16.94,0,0,0,2.11,0c.79-.07,1.72-.25,2.79-.46a8.27,8.27,0,0,0,2.07,1.23,12.37,12.37,0,0,0,6.71.59,8.64,8.64,0,0,1,1.2-.12c1,0,2.09.1,3.24.19,1.53.12,3.11.24,4.8.21a20,20,0,0,0,2.75-.27c.39-.06.92-.14,1.1-.14h0l.82.08a13.87,13.87,0,0,0,5.81-.34l.28-.09a16.3,16.3,0,0,0,5.45-.25l.7-.12a10,10,0,0,0,1.7.31,7.86,7.86,0,0,0,2.66-.26,11.89,11.89,0,0,0,2.59.27,6.5,6.5,0,0,0,1.3-.13,7.17,7.17,0,0,0,3.83-.27h.42a7.19,7.19,0,0,0,1.9-.38,7,7,0,0,0,2-.24,9,9,0,0,0,1.4-.51,9.67,9.67,0,0,0,3.41-.34,7.12,7.12,0,0,0,1.86-.86,11.52,11.52,0,0,0,3.73-.29,7.11,7.11,0,0,0,.92-.29,8.3,8.3,0,0,0,2.64,0A7.3,7.3,0,0,0,438.7,53a7,7,0,0,0,1.66,0,8.06,8.06,0,0,0,2-.45,16.55,16.55,0,0,0-.39,8.68,7.14,7.14,0,0,0,1.34,2.55l.06.08a8.22,8.22,0,0,0,2.43,2.62,6.76,6.76,0,0,0,2.87,2,6.64,6.64,0,0,0,2.62.37h.24a13.35,13.35,0,0,0,4.37-.39l.29-.07c.42-.06,1-.08,1.65-.1a15.59,15.59,0,0,0,3.91-.5,8.51,8.51,0,0,0,2-.89l1.3-.22a17.54,17.54,0,0,0,6.1-1.82,7.2,7.2,0,0,0,2.15-.36l.24-.08a7.32,7.32,0,0,0,2.08-.16,9,9,0,0,0,2.53-1,9.34,9.34,0,0,0,2.42-.19,7.2,7.2,0,0,0,2.16-.88,7.36,7.36,0,0,0,4.86-1.21l.16-.09a6.66,6.66,0,0,0,4.72-1.2h.06a9.48,9.48,0,0,0,4.85-.74c.47,0,1.23.17,1.77.27a17.15,17.15,0,0,0,6.24.25,9.15,9.15,0,0,0,2.37-.81,6.92,6.92,0,0,0,4.64-.74,7.74,7.74,0,0,0,2.58.45,7.59,7.59,0,0,0,3.39-.82,17.21,17.21,0,0,0,2.77,0c1.17-.12,2.25-.32,3.22-.5.42-.08,1-.18,1.44-.25l.75.33A11.67,11.67,0,0,0,529,61l.45.53a9.44,9.44,0,0,0,5.16,3.5,21,21,0,0,0,4.6.5c.6,0,1.17,0,1.62.07a6.37,6.37,0,0,0,3.63-.71,9.61,9.61,0,0,0,1.83-.21,6.82,6.82,0,0,0,2.68-1.2,8.67,8.67,0,0,0,1.18-.4c.46-.2.93-.44,1.4-.68l.41-.21a11,11,0,0,0,3-.57,7.14,7.14,0,0,0,2-1.09,11.06,11.06,0,0,0,2.6-.42L560,60c4,2.78,8.18,1,9.66.37a9.8,9.8,0,0,1,1-.4l.33,0a10.65,10.65,0,0,0,3.28-.15,7.49,7.49,0,0,0,1.6-.54h0a6.86,6.86,0,0,0,3.25.19,9.81,9.81,0,0,0,1.7.42,6.62,6.62,0,0,0,.9,1,7.09,7.09,0,0,0,2,1.2,7.36,7.36,0,0,0,4.91,1.9,8.07,8.07,0,0,0,2.62.84,14,14,0,0,0,3,0,8.31,8.31,0,0,0,2.67.79,17.88,17.88,0,0,0,3.77,0l.84-.08a9.13,9.13,0,0,0,2.78.9,9.27,9.27,0,0,0,1,.09,8,8,0,0,0,1.6,1.18,6.54,6.54,0,0,0,3.31,1.87,6.79,6.79,0,0,0,1.51.17,8.13,8.13,0,0,0,3.33-.78l.73.15a23.82,23.82,0,0,0,5.34.62,10.79,10.79,0,0,0,3.7-.83l.2-.08a30.92,30.92,0,0,1,3.89-.1c1,0,2.1,0,3.17,0a6.4,6.4,0,0,0,2.54.22,8.74,8.74,0,0,0,2.28,0,23.37,23.37,0,0,0,4.26-.75c.52-.13,1.05-.26,1.51-.34a9.13,9.13,0,0,0,2.07.3,7.09,7.09,0,0,0,1.34-.1,6.92,6.92,0,0,0,2.75,0,7.47,7.47,0,0,0,1-.31,7.33,7.33,0,0,0,1,0c1.32,0,2.58-.18,3.69-.3a17.55,17.55,0,0,1,3.69-.17,6.51,6.51,0,0,0,7.34-7.39ZM85.23,3.05l-.09,0,.1,0Zm-2.37-.92A6.56,6.56,0,0,0,81.78,2,6.38,6.38,0,0,1,82.86,2.13Zm-2,0a4.19,4.19,0,0,1,.5,0c-.17,0-.34,0-.5,0Zm-.13,0h0a6.62,6.62,0,0,0-2.12.74A6.37,6.37,0,0,1,80.72,2.11ZM71,2.43h.16a6.56,6.56,0,0,0-2.79.66A6.05,6.05,0,0,1,71,2.43Zm84.31,33.16h0l.1.07Z"/></g></g></svg>