<?xml version="1.0" encoding="utf-8"?>
<!-- Generator: Adobe Illustrator 23.0.3, SVG Export Plug-In . SVG Version: 6.00 Build 0)  -->
<svg version="1.1" id="Layer_1" xmlns="http://www.w3.org/2000/svg" xmlns:xlink="http://www.w3.org/1999/xlink" x="0px" y="0px"
	 viewBox="0 0 1085.3 124.4" style="enable-background:new 0 0 1085.3 124.4;" xml:space="preserve">
<style type="text/css">
	.st0{fill-rule:evenodd;clip-rule:evenodd;fill:#FAAF40;}
</style>
<title>likeAsset 9@72x</title>
<g>
	<g id="Layer_1-2">
		<path class="st0" d="M821.1,118.7c1.9,5.8,14.8,6.8,22,4.5c4-2.8,4.3-8.2,6-12.1c0.4-4.4-0.3-11.5,0.5-15.1
			c1.1,6.4,7.5,11,17.9,11c0.4,2.4,1.8,4.1,3.2,5.7c6.7,1.9,17.9,4,22.1-0.8c6.1-7-0.4-22.8,1.8-32.1c0.5-1.4-1.7-0.6-1.4-1.9
			c1,0.1,0.2-1.3,0.5-1.9c2-0.8,3.5-1.9,6.9-1.5c3,4.1,8.4,6.2,15.6,6.8c1,2.5-1.2,5.3-2.3,7.2c2.2,0.7,3.6,2.8,6.4,3
			s5.2-1.9,6.9-2.3c1.2-0.2,1.5,0.3,2.3,0c0.3-0.1,0-1,0.5-1.1s1.3,0.4,1.4,0.4c0.8-0.5,0.7-1.7,1.4-2.3c1.7-1.4,5.1-1.6,5-3.4
			c1.4,0.4,2.7,0.6,4.1,0.8c1.8-1.3,3.4-2.8,6.4-3c0.8,0.9,1.7,1.7,2.8,2.3c2.9-1.7,5.1-0.5,8.7,0c2.7-1.3,5.7-2,8.7-1.9
			c3-2.7,4.8-6.4,7.8-9.1c1.3,0.2,1.3,1.5,1.8,2.3c11.5,3.3,31,0.8,31.3-8.7c4.1,0.1,4.1-4.4,8.3-5.7c2.1-0.4,4.3-0.5,6.4-0.4
			c7.1,0.3,14.5,1.7,21.1,1.5c15.7-0.5,27.8-3.5,37.2-7.9c-1.4-2.8,2.8-2.8,2.8-5.3c-0.1-3.8-9.8-6.3-14.7-6.4
			c-2.7,0-5.2,1.5-8.3,2.3c-12.3,3.1-29.3,0.6-40.4,1.9c-3.8-2.2-8.7-1.2-12.9-3c-2.7,0.8-5.6,1.5-6.4,3.8c-4.3-0.4-10,4-13.3,0.8
			v-2.3c-2.9-3.6-8.9-3-12.9-6c-4.2-0.8-7,2.1-10.6,3c-1.9,0.3-1.6-1.2-3.7-0.8c-10.9-0.1-11,8.6-16.5,12.9
			c-1.2-9-12.5-8.1-20.7-7.9c-0.6-6.5-6-9.1-13.3-10.2c-1.2-3.3-4.7-4.7-6-7.9c-1.3-0.3-0.9,0.8-1.8,0.8c-3.1-4.7-10.7-3.9-17-5.3
			c-6.2,0.9-7.8,5.6-14.7,6c-2.2-6-15-7.2-22.5-5.3c0-3.4-2.2-6.5-5.5-7.6c-0.6-0.2-1.8,0.2-2.8,0c-4.4-0.9-6.1-5-10.6-2.3
			c-6.1-3.1-19.7-6.2-26.2-1.1c-1.2-3.5-4.1-5.4-5.5-8.7C792.9,3,788-0.3,781.6,0c-3.6,1.6-8,2.5-10.6,4.9c0.1,2.1-0.3,3.8-1.8,4.5
			c-9.5-2.1-22.1-4-24.8,4.5c-3.8-0.5-2.2,3.5-6,3c-1.4-0.3-0.7-2.2-1.8-2.6c-9.7-3-21.5-2.8-26.7,3.4c-3.3-2.6-5.8-5.8-9.7-7.9
			c-3.6,0.1-9.7-0.5-12.9-1.9c-8.7,1-11.3,6.8-14.3,12.5c-6.7-0.2-11.7,3.6-15.6,6.8c-3.2-1.9-7.3-0.7-10.6-2.3
			c-5.2,2-10.9,3.7-14.3,7.2c-1.9,5.9-4.2,11.7-6.9,17.4c-4-1.2-5.3-5.5-9.7-6.8c-4.2-1-8.5-1.5-12.9-1.5c-2.7,0.1-4.6,1.7-7.3,1.1
			c-4.9,3.2-8.4,7.5-12.4,11.3c-1.1,3.5-3,6.8-5.5,9.5c-0.3,1.1,0.5,1.4,0.5,2.3c-1.2,0.5-1.5,1.8-3.2,1.9
			c-1.3,4.3-5.9,7.7-5.5,12.1c-3.8,2.8-6.5,6.8-7.7,11.4c-4.2,1.3-4.4,6-7.8,7.9c-1.2-14.9-2.2-27-3.2-42.7
			c-0.7-0.7-1.4-1.4-2.3-1.9c0-5.3-4.9-6.6-6.9-10.2c-1.5-0.1-2-0.9-3.7-0.8c-0.8-0.7-1.2-1.6-1.4-2.6c-9.9-2.6-25-5-31.7,2.3
			c-0.9-0.7-0.8,0.2-2.3,0c-6.6,5.8-11.9,12.7-17.5,19.3H483c-1.5,3.5-6.5,4.2-7.8,7.9c-5.8,0.8-6.9,4.2-12.4,4.5
			c-1.4-0.6-2.7-1.3-2.8-3c-6.3-3.6-11.3-8.3-16.1-13.2c-2.3-1.3-5.5-2-6.4-4.5c-8.3-4.7-17.8-8.4-28.5-9.1
			c-4.1-2.3-10.5-0.2-15.6-1.1c-1.2-0.1-0.4,1.5-1.8,1.1c0.4-1.4-1.8-0.5-2.8-0.8c-6,4.4-16.5,1.8-23.4,1.1c-5.8-0.6-7.7,1.7-12,2.3
			c-0.6,0.1-0.9-0.6-1.8-0.4c-1.7,0.4-3.2,1.6-5,1.9c-9.2,1.2-16.6,4.6-24.8,3c-10.7,5.4-29.7,3.8-43.2,6c-1.9-0.1-2-1.7-4.1-1.5
			c-5.2,2-10.6,3.5-16.1,4.5c-2.8-5.9-8.9-9.1-13.8-13.2c-12.5-3-25.8-3.7-38.1-3.4c-14.4,0.3-27.9-2.9-41.8-2.7
			c-4.8-1.4-9.7-2.3-14.7-2.7c-6-0.5-12.6-1.4-18.4-1.5c-4-0.1-8.3,0.7-12.9,0.4c-11.4-0.7-24-2.8-33.1,0.8
			c-11.1,1.3-21,3.6-29.4,7.2c-5.4-1.1-11.8,4.2-17,4.5c-0.7,1,0.6,3.4-0.9,3.8v-3.4c-9,1.3-18.8,3.5-26.6,6.8
			c-0.9,2.6,3.6,1.5,1.8,3.8c-1.4-0.2-2-1.2-3.2-1.5c0.4-0.3,2-2.3,0-2.3c-2.3-0.5-3.2,3.3-7.9,1.9c-0.6,1.5-2.4,2-2.3,4.2
			c14.7,0.8,38.8-0.6,52.8-4.5c1.5-0.2-1.2-1.5,0.9-1.1c0.8,0.2-0.1,0.5,0,1.1c17.7-3.5,34-8.3,53.8-7.5c17.6,0.6,35,1.2,51.5,3
			c10.6,1.2,22.9,3.4,32.6,3.8c13,0.5,28.8-0.9,38.1,2.7c3.6,3.6,4.9,10.3,10.6,12.8c4,1.8,11.6,2.7,17,2.7c6.7,0,12.1-2.2,17-2.7
			c10.2-0.9,16.7-3,25.3-4.2c10-1.4,19.8-0.8,29-1.1c8.1-0.3,12.6-2.8,19.8-3c2.9-1.9,7.2-2.6,11-3.8c4.2,7,17.3,6.7,26.6,4.5
			c0.2-7.6,9.6-7.7,18.8-7.9c1.9,0.6,3,1.8,6,1.5c6.1,3,11.5,6.6,17.5,9.8c1.2,3.3,5.3,4.7,7.8,6.8c1.8,1.5,2.8,3.7,5,4.9
			c0.5,0.3,1.7-0.2,2.3,0c2.3,0.9,4.2,3.1,6.9,4.2c2.4,1,5.8,1,6.9,2.3c4.9-0.3,10.6,0.2,16.5,0c3.5-1,5.9-3,10.6-3
			c0.7-1.1,2.4-1.3,2.8-2.6c6.2-2.2,11.8-6,16.1-11c8.6-3.4,10-12.7,19.8-15.1c-0.2,1.7,1.2,2,1.8,3c-1.1,5,1.1,10.3,1.4,15.5
			c0.5,10,0.5,20.6,1.4,32.5c1.1,1,2.6-0.7,3.7,0.4c-4.3,2.3-0.9,4.6-1.4,7.9l5.5,4.9c3.5-0.9,5.6,1.8,8.7,1.9s6.4-1.9,10.1-0.8
			c6.5-2.7,12.8-5.6,15.2-11.7c0.5,0.4,1.3,0.4,1.8,0c2.4-3.6,6.7-5.5,9.2-9.1c1.4-2.9,4.4-4.5,5.1-7.9c7.2-4.9,7.6-15.4,15.2-20
			c0.7,8.5-1.4,17.9-0.9,26.1c4.2,2.1,6.1,5.8,11.9,6.4c3.7,0.4,7-0.8,11,0c1.6-1.6,4.2-2.4,6-3.8c1.1-2.9,2.8-5.4,5-7.6
			c1.5,1.3,0.8,4.4,0.9,6.8c2.4,2.7,6.7,3.8,10.6,5.3c4-0.8,7.5,0.2,11.5-0.4c2.3-0.3,4.3-1.7,6.4-1.9c3.8-0.3,7.9,1.1,11-1.1
			c0.5-2.5,2.8-3.5,4.1-5.3c2.1,5.9,13.1,2.3,18.4,5.3c9.8-3.3,9.2-12.8,14.7-19.3c0.8-2.3-1.4-4.1-0.5-5.3c1.2-0.1-0.4,2.1,1.4,1.5
			c1-1.7,0.5-4.6,2.8-5.3c0.5,2.9,3.3,5,2.8,7.6c2.7,1.9,7.3,2.3,10.1,4.2c1.8-1.2,5.4-0.8,8.3-1.1c5.2,4.2,11.3,5.8,20.2,4.5
			c2,0.9,2.9,2.7,4.6,3.8c8.3,1.2,17.2,3.1,23-0.8c1.5,5.5,3.4,9.6,10.6,10.6c3,0.4,6.8-0.8,10.1,0c2.3,0.6,4,3.1,5.5,4.2
			c4-0.3,6.7,1.3,10.1,0.4C822.5,111.6,820.1,115.6,821.1,118.7z"/>
	</g>
</g>
</svg>
