<?xml version="1.0" encoding="utf-8"?>
<!-- Generator: Adobe Illustrator 23.0.3, SVG Export Plug-In . SVG Version: 6.00 Build 0)  -->
<svg version="1.1" id="Layer_1" xmlns="http://www.w3.org/2000/svg" xmlns:xlink="http://www.w3.org/1999/xlink" x="0px" y="0px"
	 viewBox="0 0 1326.1 254.8" style="enable-background:new 0 0 1326.1 254.8;" xml:space="preserve">
<style type="text/css">
	.st0{fill:#FAAF40;}
	.st1{fill:#FFFFFF;}
</style>
<title>likeAsset 7@72x</title>
<g>
	<g id="Layer_1-2">
		<path class="st0" d="M179.7,242.3c-10.3,0-19.4-6.8-24-17.5c-4-9.8-6.2-27.2,5.9-55.1c2.2-5.2,4.9-10.4,7.8-15.8
			c-13.6,11-26.7,22.7-39,35.2c-1.5,1.5-4,1.5-5.5,0c-1.5-1.5-1.5-4,0-5.5c12.4-12.4,24-25.4,35-39.1c-8.5,4.9-17.5,9-26.8,12.2
			c-32.9,11-48.6,0.1-53.8-5.2c-9.9-9.9-9.9-24.8,0-34.7c5.2-5.3,20.8-16.1,53.8-5.2c9.4,3.2,18.3,7.3,26.9,12.3
			c-11-13.7-22.6-26.8-35.1-39.2c-1.5-1.5-1.5-4,0-5.5c1.5-1.5,4-1.5,5.5,0l0,0c12.3,12.5,25.3,24.2,38.9,35.2
			c-4.9-8.5-9-17.6-12.2-27c-11-33.1-0.1-48.9,5.1-54.1c9.9-9.9,24.8-9.9,34.6,0c5.2,5.3,16.1,20.9,5.1,54.1
			c-3.2,9.4-7.2,18.3-12.1,27c13.6-11,26.6-22.7,38.9-35.2c1.5-1.5,3.9-1.5,5.5,0l0,0c1.5,1.5,1.5,4,0,5.5
			c-12.5,12.4-24.1,25.5-35.1,39.2c8.5-5,17.6-9.1,27-12.3c32.9-11,48.6-0.1,53.8,5.2c9.9,9.9,9.9,24.8,0,34.7
			c-5.2,5.3-20.8,16.1-53.8,5.2c-9.4-3.2-18.3-7.3-26.8-12.2c10.9,13.7,22.5,26.7,35,39.1c1.5,1.5,1.5,4,0,5.5c-1.5,1.5-4,1.5-5.5,0
			l0,0c-12.3-12.5-25.3-24.2-39-35.2c3,5.3,5.6,10.6,7.8,15.8c12.2,27.9,9.9,45.4,5.9,55.1C199.1,235.6,189.9,242.3,179.7,242.3z
			 M179.7,151.9c-4.1,6.7-7.7,13.7-11,20.8c-8.6,19.8-10.7,37.2-5.8,49c3.3,8,9.5,12.7,16.7,12.7s13.4-4.8,16.7-12.7
			c4.9-11.8,2.8-29.2-5.8-49C187.5,165.5,183.8,158.6,179.7,151.9z M197.5,134.1c11,6.8,21.4,11.8,31.2,15c28.9,9.7,41.7,1,45.9-3.2
			c6.9-6.9,6.9-16.8,0-23.7c-4.2-4.2-17-12.9-45.9-3.2C218.9,122.4,208.5,127.4,197.5,134.1L197.5,134.1z M107,114.7
			c-12.7,0-19.4,4.8-22.2,7.6c-6.9,6.9-6.9,16.8,0,23.7c4.2,4.2,17,12.9,45.9,3.2c9.7-3.3,20.2-8.3,31.2-15
			c-11-6.8-21.5-11.8-31.2-15C121.1,115.9,113.4,114.7,107,114.7z M172.5,141.1l-1.1,1.3l1.4-1.1l-0.1-0.1L172.5,141.1z
			 M186.5,141.3l1.4,1.1l-1.1-1.4L186.5,141.3L186.5,141.3z M178.3,135.4l1.4,1l1.4-1l0.9-1.2l-1-1.3l-1.3-0.9l-1.3,0.9l-0.9,1.3
			L178.3,135.4z M171.4,125.8l1.1,1.4l0.3-0.2l0.2-0.2L171.4,125.8z M186.7,127.2l0.3,0.2c0.4-0.4,0.7-1,1.1-1.4l-1.4,1.1
			L186.7,127.2z M179.7,33.7c-4.5,0.1-8.7,1.9-11.8,5.2c-4.2,4.2-12.8,17.1-3.2,46c3.2,9.8,8.3,20.3,15,31.3
			c6.7-11,11.8-21.5,15-31.3c9.6-29,1-41.9-3.2-46C188.4,35.6,184.2,33.7,179.7,33.7z"/>
		<path class="st1" d="M1239.5,170.2c-43.6-7.4-49-12.6-56.3-56.3c-0.3-1.8-2-2.9-3.7-2.7c-1.3,0.3-2.5,1.3-2.7,2.7
			c-7.4,43.6-12.6,49-56.4,56.3c-1.8,0.3-2.9,2-2.7,3.7c0.3,1.3,1.3,2.5,2.7,2.7c43.6,7.4,49,12.6,56.4,56.4c0.3,1.8,2,2.9,3.7,2.7
			c1.3-0.3,2.5-1.3,2.7-2.7c7.4-43.6,12.6-49,56.3-56.4c1.8-0.3,2.9-2,2.7-3.7C1242,171.5,1240.9,170.4,1239.5,170.2z M1193.1,186.6
			c-6.4,6.4-10.2,15.3-13.1,28.6c-3-13.4-6.7-22.2-13.1-28.6c-6.4-6.4-15.3-10.2-28.7-13.2c13.4-3,22.2-6.7,28.7-13.1
			c6.4-6.4,10.2-15.3,13.1-28.6c3,13.4,6.7,22.2,13.1,28.6c6.4,6.4,15.3,10.2,28.6,13.1C1208.4,176.4,1199.5,180.1,1193.1,186.6z"/>
	</g>
</g>
</svg>
