<?xml version="1.0" encoding="utf-8"?>
<!-- Generator: Adobe Illustrator 23.0.3, SVG Export Plug-In . SVG Version: 6.00 Build 0)  -->
<svg version="1.1" id="Layer_1" xmlns="http://www.w3.org/2000/svg" xmlns:xlink="http://www.w3.org/1999/xlink" x="0px" y="0px"
	 viewBox="0 0 1392.1 582.8" style="enable-background:new 0 0 1392.1 582.8;" xml:space="preserve">
<style type="text/css">
	.st0{fill:#FAAF40;}
	.st1{fill:#FFFFFF;}
</style>
<title>likeAsset 4@72x</title>
<g>
	<g id="Layer_1-2">
		<path class="st0" d="M121,493.3c-11.6,0-21.8-7.6-26.9-19.7c-4.5-11-7-30.6,6.6-61.9c2.5-5.8,5.5-11.7,8.8-17.7
			c-15.3,12.3-30,25.5-43.8,39.5c-1.7,1.7-4.5,1.7-6.2,0c-1.7-1.7-1.7-4.5,0-6.2c13.9-13.9,27-28.5,39.3-43.9
			c-9.6,5.5-19.7,10.1-30.1,13.7c-37,12.4-54.6,0.1-60.4-5.8c-11.1-11.1-11.1-27.9,0-39c5.8-5.9,23.4-18.1,60.4-5.8
			c10.5,3.6,20.6,8.2,30.2,13.8c-12.3-15.4-25.4-30.1-39.4-44c-1.7-1.7-1.7-4.5,0-6.2s4.5-1.7,6.2,0l0,0
			c13.8,14,28.4,27.2,43.7,39.5c-5.5-9.6-10.1-19.8-13.7-30.3c-12.3-37.2-0.1-54.9,5.7-60.7c11.1-11.1,27.8-11.1,38.8,0
			c5.8,5.9,18.1,23.5,5.7,60.7c-3.6,10.5-8.1,20.6-13.6,30.3c15.3-12.3,29.9-25.5,43.7-39.5c1.7-1.7,4.4-1.7,6.2,0c0,0,0,0,0,0
			c1.7,1.7,1.7,4.5,0,6.2c-14,13.9-27.1,28.6-39.4,44c9.6-5.6,19.8-10.2,30.3-13.8c37-12.4,54.6-0.1,60.4,5.8
			c11.1,11.1,11.1,27.9,0,39c-5.8,5.9-23.4,18.1-60.4,5.8c-10.5-3.6-20.5-8.2-30.1-13.7c12.2,15.4,25.3,30,39.3,43.9
			c1.7,1.7,1.7,4.5,0,6.2c-1.7,1.7-4.5,1.7-6.2,0l0,0c-13.8-14-28.4-27.2-43.8-39.5c3.4,6,6.3,11.9,8.8,17.7
			c13.7,31.3,11.1,51,6.6,61.9C142.8,485.8,132.5,493.3,121,493.3z M121,391.8c-4.6,7.5-8.7,15.4-12.3,23.4
			c-9.7,22.2-12,41.8-6.5,55c3.7,9,10.7,14.3,18.8,14.3s15.1-5.4,18.8-14.3c5.5-13.3,3.2-32.8-6.5-55
			C129.7,407.1,125.6,399.3,121,391.8z M141,371.8c12.3,7.6,24,13.3,35,16.9c32.4,10.9,46.8,1.1,51.5-3.6c7.7-7.7,7.7-18.9,0-26.6
			c-4.7-4.7-19.1-14.5-51.5-3.6C165,358.6,153.3,364.3,141,371.8L141,371.8z M39.4,350c-14.3,0-21.8,5.4-24.9,8.5
			c-7.7,7.7-7.7,18.9,0,26.6c4.7,4.7,19.1,14.5,51.5,3.6c10.9-3.7,22.7-9.3,35-16.9c-12.4-7.6-24.1-13.3-35-16.9
			C55.2,351.3,46.5,350,39.4,350z M112.9,379.6l-1.2,1.5l1.6-1.2l-0.1-0.1L112.9,379.6z M128.6,379.9l1.6,1.2l-1.2-1.6l-0.4,0.3
			L128.6,379.9z M119.4,373.3l1.6,1.1l1.6-1.1l1-1.4l-1.1-1.5l-1.5-1l-1.5,1l-1,1.5L119.4,373.3z M111.7,362.5l1.2,1.6l0.3-0.2
			l0.2-0.2L111.7,362.5z M128.8,364l0.3,0.2c0.4-0.5,0.8-1.1,1.2-1.6l-1.6,1.2L128.8,364z M121,259.1c-5,0.1-9.8,2.1-13.2,5.8
			c-4.7,4.7-14.4,19.2-3.6,51.7c3.6,11,9.3,22.8,16.8,35.2c7.5-12.4,13.2-24.2,16.8-35.2c10.8-32.6,1.1-47-3.6-51.7
			C130.8,261.2,126,259.1,121,259.1z"/>
		<path class="st0" d="M1196.2,235.4c-0.9,0-1.8-0.2-2.6-0.7c-1.9-1.1-2.4-2.3-2.5-4.5h-0.1v-34.5c-18.3,17.6-36.9,25.8-51.3,22.3
			c-7.9-1.8-14-8-15.8-15.9c-3.5-14.4,4.7-33,22.3-51.3h-34.5l0,0c-2.2-0.1-3.4-0.6-4.5-2.5c-0.9-1.6-0.9-3.6,0-5.1
			c1.1-1.9,2.3-2.4,4.5-2.5l0,0h34.5c-17.6-18.3-25.8-36.9-22.3-51.3c1.8-7.9,8-14.1,15.9-15.9c14.3-3.5,33,4.8,51.3,22.3V61.3h0.1
			c0.1-2.2,0.7-3.4,2.5-4.5c1.6-0.9,3.6-0.9,5.2,0c1.9,1.1,2.4,2.3,2.5,4.5h0.1v34.5c18.3-17.6,36.9-25.8,51.3-22.3
			c7.9,1.8,14.1,8,15.9,15.9c3.5,14.3-4.8,33-22.3,51.3h34.5l0,0c2.2,0.1,3.4,0.6,4.5,2.5c0.9,1.6,0.9,3.6,0,5.1
			c-1.1,1.9-2.3,2.4-4.5,2.5l0,0h-34.5c17.6,18.3,25.8,36.9,22.3,51.3c-1.8,7.9-7.9,14.2-15.9,16c-14.3,3.5-33-4.8-51.3-22.3v34.5
			h-0.1c-0.1,2.2-0.7,3.4-2.5,4.5C1198,235.1,1197.1,235.4,1196.2,235.4z M1164.3,145.7c0,1.5-0.6,2.9-1.8,3.9
			c-24.8,21.8-30.9,40.6-28.6,50.1c0.8,4.2,4.1,7.5,8.3,8.3c9.5,2.3,28.3-3.8,50.1-28.6c1-1.1,2.4-1.8,3.9-1.8l0,0
			c1.5,0,2.9,0.6,3.9,1.8c21.8,24.8,40.6,30.9,50.1,28.6c4.2-0.8,7.5-4.1,8.3-8.3c2.3-9.5-3.8-28.3-28.6-50.1
			c-1.1-1-1.8-2.4-1.8-3.9l0,0c0-1.5,0.6-2.9,1.8-3.9c24.8-21.8,30.9-40.6,28.6-50.1c-0.8-4.2-4.1-7.5-8.3-8.3
			c-9.5-2.3-28.3,3.8-50.1,28.6c-1,1.1-2.4,1.7-3.9,1.8l0,0c-1.5,0-2.9-0.6-3.9-1.8c-21.8-24.8-40.6-30.9-50.1-28.6
			c-4.2,0.8-7.5,4.1-8.3,8.3c-2.3,9.5,3.8,28.3,28.6,50.1C1163.7,142.9,1164.3,144.3,1164.3,145.7L1164.3,145.7L1164.3,145.7z"/>
		<path class="st1" d="M1369.8,444.3c-69-11.7-77.4-20-89-89c-0.5-2.8-3.1-4.7-5.9-4.2c-2.2,0.4-3.9,2.1-4.2,4.2
			c-11.7,69-20,77.4-89.1,89c-2.8,0.5-4.7,3.1-4.2,5.9c0.4,2.2,2.1,3.9,4.2,4.2c69,11.7,77.4,20,89.1,89.1c0.5,2.8,3.1,4.7,5.9,4.2
			c2.2-0.4,3.9-2.1,4.2-4.2c11.7-69,20-77.4,89-89.1c2.8-0.5,4.7-3.1,4.2-5.9C1373.7,446.4,1372,444.7,1369.8,444.3z M1296.5,470.2
			c-10.2,10.2-16,24.2-20.8,45.2c-4.8-21.1-10.6-35.1-20.8-45.2s-24.2-16-45.3-20.8c21.1-4.8,35.1-10.6,45.3-20.8s16-24.2,20.8-45.2
			c4.8,21,10.6,35.1,20.8,45.2s24.2,16,45.2,20.8C1320.7,454.2,1306.7,460,1296.5,470.2z"/>
		<path class="st1" d="M535.8,112.3c-51.9-8.8-58.2-15-67-66.9c-0.4-2.1-2.4-3.5-4.5-3.2c-1.6,0.3-2.9,1.5-3.2,3.2
			c-8.8,51.9-15,58.2-67,67c-2.1,0.4-3.5,2.4-3.1,4.5c0.3,1.6,1.5,2.9,3.1,3.1c51.9,8.8,58.2,15,67,67c0.4,2.1,2.4,3.5,4.5,3.2
			c1.6-0.3,2.9-1.5,3.2-3.2c8.8-51.9,15-58.2,67-67c2.1-0.3,3.5-2.3,3.2-4.4c-0.3-1.6-1.6-2.9-3.2-3.2V112.3z M480.6,131.7
			c-7.7,7.6-12,18.2-15.6,34c-3.6-15.8-8-26.4-15.6-34s-18.2-12-34-15.6c15.8-3.6,26.4-7.9,34-15.6s12-18.2,15.6-34
			c3.6,15.8,8,26.4,15.6,34s18.2,12,34,15.6C498.8,119.7,488.3,124,480.6,131.7z"/>
		<path class="st1" d="M389.6,42.5c-31.3-5.3-35.1-9.1-40.4-40.6c-0.2-1.3-1.4-2.1-2.7-1.9c-1,0.2-1.7,0.9-1.9,1.9
			c-5.3,31.5-9.1,35.3-40.4,40.6c-1.3,0.2-2.1,1.4-1.9,2.7c0.2,1,0.9,1.7,1.9,1.9c31.3,5.3,35.1,9.1,40.4,40.6
			c0.2,1.3,1.4,2.1,2.7,1.9c1-0.2,1.7-0.9,1.9-1.9c5.3-31.5,9.1-35.3,40.4-40.6c1.3-0.2,2.1-1.4,1.9-2.7
			C391.3,43.5,390.6,42.7,389.6,42.5z M356.3,54.3c-4.6,4.6-7.2,11-9.4,20.6c-2.2-9.6-4.8-16-9.4-20.6s-11-7.3-20.5-9.4
			c9.5-2.2,15.9-4.8,20.5-9.5s7.2-11,9.4-20.6c2.2,9.6,4.8,16,9.4,20.6s11,7.3,20.5,9.5C367.3,47,360.9,49.7,356.3,54.3z"/>
	</g>
</g>
</svg>
