<?xml version="1.0" encoding="utf-8"?>
<!-- Generator: Adobe Illustrator 23.0.3, SVG Export Plug-In . SVG Version: 6.00 Build 0)  -->
<svg version="1.1" id="Layer_1" xmlns="http://www.w3.org/2000/svg" xmlns:xlink="http://www.w3.org/1999/xlink" x="0px" y="0px"
	 viewBox="0 0 1116.1 218.8" style="enable-background:new 0 0 1116.1 218.8;" xml:space="preserve">
<style type="text/css">
	.st0{fill:#FAAF40;}
	.st1{fill:#FFFFFF;}
</style>
<title>likeAsset 7@72x</title>
<g>
	<g id="Layer_1-2">
		<path class="st0" d="M841.4,186.9c-0.7,0-1.4-0.2-2.1-0.6c-1.5-0.9-1.9-1.8-2-3.6h-0.1v-27.4c-14.5,14-29.3,20.5-40.7,17.7
			c-6.3-1.4-11.1-6.4-12.5-12.6c-2.8-11.4,3.7-26.2,17.7-40.7h-27.4l0,0c-1.7-0.1-2.7-0.5-3.6-2c-0.7-1.3-0.7-2.9,0-4
			c0.9-1.5,1.8-1.9,3.6-2l0,0h27.4c-14-14.5-20.5-29.3-17.7-40.7c1.4-6.3,6.4-11.2,12.6-12.6c11.4-2.8,26.2,3.8,40.7,17.7V48.7h0.1
			c0.1-1.7,0.6-2.7,2-3.6c1.3-0.7,2.9-0.7,4.1,0c1.5,0.9,1.9,1.8,2,3.6h0.1v27.4c14.5-14,29.3-20.5,40.7-17.7
			c6.3,1.4,11.2,6.4,12.6,12.6c2.8,11.4-3.8,26.2-17.7,40.7h27.4l0,0c1.7,0.1,2.7,0.5,3.6,2c0.7,1.3,0.7,2.9,0,4
			c-0.9,1.5-1.8,1.9-3.6,2l0,0h-27.4c14,14.5,20.5,29.3,17.7,40.7c-1.4,6.3-6.3,11.3-12.6,12.7c-11.4,2.8-26.2-3.8-40.7-17.7v27.4
			h-0.1c-0.1,1.7-0.6,2.7-2,3.6C842.8,186.7,842.1,186.9,841.4,186.9z M816.1,115.7c0,1.2-0.5,2.3-1.4,3.1
			c-19.7,17.3-24.5,32.2-22.7,39.8c0.6,3.3,3.3,6,6.6,6.6c7.5,1.8,22.5-3,39.8-22.7c0.8-0.9,1.9-1.4,3.1-1.4l0,0
			c1.2,0,2.3,0.5,3.1,1.4c17.3,19.7,32.2,24.5,39.8,22.7c3.3-0.6,6-3.3,6.6-6.6c1.8-7.5-3-22.5-22.7-39.8c-0.9-0.8-1.4-1.9-1.4-3.1
			l0,0c0-1.2,0.5-2.3,1.4-3.1c19.7-17.3,24.5-32.2,22.7-39.8c-0.6-3.3-3.3-6-6.6-6.6c-7.5-1.8-22.5,3-39.8,22.7
			c-0.8,0.9-1.9,1.3-3.1,1.4l0,0c-1.2,0-2.3-0.5-3.1-1.4C821,69.2,806,64.4,798.5,66.2c-3.3,0.6-6,3.3-6.6,6.6
			c-1.8,7.5,3,22.5,22.7,39.8C815.6,113.4,816.1,114.6,816.1,115.7L816.1,115.7L816.1,115.7z"/>
		<path class="st1" d="M348,89.2c-41.2-7-46.2-11.9-53.2-53.1c-0.3-1.7-1.9-2.8-3.6-2.5c-1.3,0.2-2.3,1.2-2.5,2.5
			c-7,41.2-11.9,46.2-53.2,53.2c-1.7,0.3-2.8,1.9-2.5,3.6c0.2,1.3,1.2,2.3,2.5,2.5c41.2,7,46.2,11.9,53.2,53.2
			c0.3,1.7,1.9,2.8,3.6,2.5c1.3-0.2,2.3-1.2,2.5-2.5c7-41.2,11.9-46.2,53.2-53.2c1.7-0.2,2.8-1.8,2.5-3.5
			C350.3,90.5,349.3,89.5,348,89.2L348,89.2z M304.2,104.6c-6.1,6-9.5,14.4-12.4,27c-2.9-12.5-6.4-21-12.4-27c-6-6-14.4-9.5-27-12.4
			c12.5-2.9,21-6.3,27-12.4c6-6.1,9.5-14.4,12.4-27c2.9,12.5,6.4,21,12.4,27c6,6,14.4,9.5,27,12.4C318.6,95,310.3,98.4,304.2,104.6z
			"/>
		<path class="st1" d="M231.9,33.7c-24.9-4.2-27.9-7.2-32.1-32.2c-0.2-1-1.1-1.7-2.1-1.5c-0.8,0.2-1.3,0.7-1.5,1.5
			c-4.2,25-7.2,28-32.1,32.2c-1,0.2-1.7,1.1-1.5,2.1c0.2,0.8,0.7,1.3,1.5,1.5c24.9,4.2,27.9,7.2,32.1,32.2c0.2,1,1.1,1.7,2.1,1.5
			c0.8-0.2,1.3-0.7,1.5-1.5c4.2-25,7.2-28,32.1-32.2c1-0.2,1.7-1.1,1.5-2.1C233.3,34.5,232.7,33.9,231.9,33.7z M205.5,43.1
			c-3.7,3.7-5.7,8.7-7.5,16.4c-1.7-7.6-3.8-12.7-7.5-16.4c-3.7-3.7-8.7-5.8-16.3-7.5c7.5-1.7,12.6-3.8,16.3-7.5s5.7-8.7,7.5-16.4
			c1.7,7.6,3.8,12.7,7.5,16.4s8.7,5.8,16.3,7.5C214.2,37.3,209.2,39.5,205.5,43.1z"/>
	</g>
</g>
</svg>
