<?xml version="1.0" encoding="utf-8"?>
<!-- Generator: Adobe Illustrator 23.0.3, SVG Export Plug-In . SVG Version: 6.00 Build 0)  -->
<svg version="1.1" id="Layer_1" xmlns="http://www.w3.org/2000/svg" xmlns:xlink="http://www.w3.org/1999/xlink" x="0px" y="0px"
	 viewBox="0 0 441.6 320.7" style="enable-background:new 0 0 441.6 320.7;" xml:space="preserve">
<style type="text/css">
	.st0{fill:#F4B21E;}
	.st1{fill:none;stroke:#000000;stroke-width:7;stroke-miterlimit:10;}
</style>
<title>logo</title>
<path d="M68,80.7l-8.5-40.2H59l-8.5,40.2H27.2l-15.4-66h22.1l7.6,37.4h0.4l7.5-37.4h20.9l8,37.4h0.4l7.1-37.4h21.1l-15.4,66H68z"/>
<path class="st0" d="M176,22.3c6.2,5.8,9.3,14.3,9.3,25.4c0,11.1-3.1,19.6-9.3,25.4c-6.2,5.8-15,8.7-26.4,8.7s-20.1-2.9-26.3-8.7
	c-6.2-5.8-9.3-14.3-9.3-25.4c0-11.2,3.1-19.7,9.3-25.4c6.2-5.8,14.9-8.7,26.3-8.7S169.8,16.5,176,22.3z M139.3,33.5
	c-2.4,2.8-3.5,6.5-3.5,11.1v6.1c0,4.7,1.2,8.4,3.5,11.1c2.4,2.7,5.8,4.1,10.4,4.1c4.5,0,8-1.4,10.4-4.1c2.4-2.7,3.6-6.5,3.6-11.1
	v-6.1c0-4.7-1.2-8.4-3.6-11.1c-2.4-2.7-5.9-4.1-10.4-4.1C145.1,29.4,141.7,30.8,139.3,33.5L139.3,33.5z"/>
<path d="M260.2,45.9c-2.3,3.4-5.6,5.9-9.5,7.2l14.7,27.6h-23.8l-11.7-24.1H222v24.1h-21.2v-66h40.4c4.2-0.1,8.4,0.8,12.1,2.7
	c3.2,1.7,5.8,4.2,7.6,7.4c1.7,3.1,2.6,6.6,2.5,10.1C263.5,38.8,262.4,42.7,260.2,45.9z M240.2,31.5c-1.1-1.1-2.6-1.8-4.2-1.7h-13.9
	V42H236c1.6,0,3.1-0.6,4.2-1.8c1.1-1.2,1.8-2.7,1.7-4.4C242,34.2,241.3,32.7,240.2,31.5L240.2,31.5z"/>
<path d="M324.1,14.8h26.3l-23.7,27.1l24.2,38.8h-25.1l-13.7-24.2L300.6,66v14.8h-21.1v-66h21.2v28.2L324.1,14.8z"/>
<path d="M62.9,195.7v-25H39.6v25H18.4v-65.9h21.2v24.1h23.3v-24.1h21.2v65.9H62.9z"/>
<path d="M155.4,189.8c-5.7,4.7-13.8,7.1-24.3,7.1c-10.5,0-18.6-2.4-24.4-7.1c-5.7-4.7-8.6-11.6-8.6-20.6v-39.4h21.2v39.1
	c-0.2,3.2,0.9,6.4,3,8.9c2,2.2,4.9,3.3,8.6,3.3s6.7-1.1,8.7-3.4c2.1-2.5,3.2-5.6,3-8.8v-39.1h21.2v39.4
	C163.9,178.2,161.1,185.1,155.4,189.8z"/>
<path d="M231.2,131.9c2.7,1.3,5,3.3,6.6,5.8c1.6,2.5,2.5,5.4,2.4,8.3c0,8.1-3.7,13.2-11,15.3v0.4c8.4,1.9,12.6,7.4,12.6,16.5
	c0.1,3.2-0.8,6.4-2.5,9.1c-1.7,2.7-4.1,4.8-7,6.2c-3,1.5-6.3,2.2-9.7,2.2h-44.5v-66H222C225.2,129.8,228.3,130.5,231.2,131.9z
	 M199.3,155.5h14.6c1.3,0,2.6-0.5,3.5-1.5c0.9-1,1.5-2.3,1.4-3.7v-1c0-1.3-0.5-2.6-1.4-3.6c-0.9-1-2.1-1.5-3.5-1.5h-14.6V155.5z
	 M199.3,180.4h16.1c1.3,0,2.6-0.5,3.5-1.5c0.9-1,1.4-2.3,1.4-3.7v-1c0-1.4-0.5-2.7-1.4-3.7c-0.9-1-2.2-1.5-3.5-1.5h-16.1V180.4z"/>
<path d="M69.1,310.8V287c0-2.9,0.1-6,0.3-9.1s0.5-5.7,0.7-7.8c0.3-2.1,0.4-3.5,0.5-4h-0.4L58,310.8H41.4l-12.3-44.6h-0.4
	c0.1,0.6,0.2,1.9,0.5,4s0.6,4.7,0.8,7.8s0.4,6.1,0.4,9.1v23.8H11.1v-66H41l10,38.1h0.4l9.9-38.1h28.8v66L69.1,310.8z"/>
<path d="M104.8,310.8v-65.9H126v66L104.8,310.8z"/>
<path d="M143.2,244.8h21.2v49.1h33.8v16.9h-55L143.2,244.8z"/>
<path d="M253.3,310.8l-2.8-9.3h-23.1l-2.8,9.3H203l24.1-65.9h24.6l24.1,65.9H253.3z M231.8,286.7h14.3l-6.9-23.5h-0.4L231.8,286.7z"
	/>
<path d="M331.9,310.8l-27.7-32v32h-19.5v-65.9h18.5l27.7,32.5v-32.5h19.5v66L331.9,310.8z"/>
<path class="st0" d="M423.7,252.4c6.2,5.8,9.3,14.3,9.3,25.4s-3.1,19.6-9.3,25.4c-6.2,5.8-15,8.7-26.4,8.7
	c-11.4,0-20.1-2.9-26.3-8.7c-6.2-5.8-9.2-14.3-9.2-25.4s3.1-19.7,9.2-25.5c6.2-5.8,14.9-8.7,26.3-8.7
	C408.7,243.6,417.5,246.6,423.7,252.4z M387,263.6c-2.4,2.8-3.5,6.5-3.5,11.1v6.1c0,4.7,1.2,8.4,3.5,11.1c2.4,2.7,5.8,4.1,10.4,4.1
	c4.5,0,8-1.4,10.4-4.1c2.4-2.7,3.6-6.5,3.6-11.1v-6.1c0-4.7-1.2-8.4-3.6-11.1c-2.4-2.7-5.9-4.1-10.4-4.1
	C392.8,259.5,389.3,260.9,387,263.6z"/>
<polygon points="292.5,126.5 292.5,210.1 256.8,210.1 256.8,148 "/>
<polygon points="361.9,108.2 361.9,210.1 326.2,210.1 326.2,108.2 344.2,96.7 342.9,96.7 "/>
<polygon points="431.4,149.8 431.4,210.1 395.6,210.1 395.6,128.4 "/>
<line class="st1" x1="271.1" y1="203.9" x2="271.1" y2="123.3"/>
<line class="st1" x1="412" y1="203.9" x2="412" y2="123.3"/>
<line class="st1" x1="307.8" y1="208" x2="307.8" y2="107.8"/>
<line class="st1" x1="378.3" y1="208" x2="378.3" y2="107.8"/>
</svg>
